<?xml version="1.0" standalone="no"?>
<!DOCTYPE svg PUBLIC "-//W3C//DTD SVG 20010904//EN"
 "http://www.w3.org/TR/2001/REC-SVG-20010904/DTD/svg10.dtd">
<svg version="1.0" xmlns="http://www.w3.org/2000/svg"
 width="1449.000000pt" height="1932.000000pt" viewBox="0 0 1449.000000 1932.000000"
 preserveAspectRatio="xMidYMid meet">

<g transform="translate(0.000000,1932.000000) scale(0.100000,-0.100000)"
fill="#191F39" stroke="none">
<path d="M6935 16723 c-16 -2 -37 -7 -45 -10 -8 -3 -46 -7 -85 -8 -69 -3 -95
-7 -125 -18 -8 -3 -43 -8 -77 -10 -44 -4 -68 -11 -84 -26 -34 -32 -84 -44
-149 -37 -37 4 -61 3 -65 -4 -3 -5 -17 -10 -31 -10 -14 0 -34 -5 -45 -10 -13
-8 -31 -7 -59 1 -63 19 -220 -11 -280 -53 -13 -10 -40 -21 -60 -24 -19 -4 -44
-11 -55 -17 -11 -6 -26 -10 -33 -8 -13 2 -106 -22 -147 -39 -11 -5 -40 -11
-65 -14 -95 -13 -120 -18 -114 -27 3 -5 -2 -9 -11 -9 -9 0 -26 -7 -39 -15 -13
-9 -57 -18 -98 -21 -40 -3 -104 -17 -142 -30 -38 -13 -85 -24 -103 -24 -38 0
-74 -15 -86 -36 -4 -8 -15 -14 -24 -14 -8 0 -30 -13 -49 -30 -18 -16 -51 -32
-71 -36 -39 -7 -91 -43 -147 -101 -17 -18 -38 -33 -46 -33 -13 0 -13 -1 0 -10
11 -7 5 -10 -22 -10 -30 0 -38 -4 -38 -18 0 -10 -15 -26 -34 -36 -19 -10 -37
-25 -40 -33 -3 -8 -10 -11 -16 -8 -5 3 -10 -3 -10 -14 0 -15 -6 -21 -23 -21
-26 0 -67 -26 -67 -42 0 -6 -14 -24 -32 -40 -17 -15 -28 -28 -25 -28 7 0 -11
-18 -109 -107 -13 -12 -24 -25 -24 -28 0 -10 -57 -60 -98 -84 -27 -16 -38 -29
-35 -41 3 -10 -8 -28 -26 -46 -17 -16 -31 -35 -31 -42 0 -7 -11 -23 -24 -35
-13 -12 -30 -36 -39 -53 -9 -17 -23 -34 -32 -37 -8 -4 -15 -12 -15 -19 0 -7
-11 -22 -25 -32 -14 -10 -25 -23 -25 -27 0 -5 -9 -18 -20 -29 -11 -11 -20 -29
-20 -40 0 -11 -4 -20 -8 -20 -11 0 -72 -103 -72 -122 0 -8 -12 -28 -26 -43
-14 -15 -23 -33 -20 -40 3 -8 -4 -33 -16 -56 -11 -24 -21 -48 -23 -53 -11 -52
-29 -106 -35 -106 -6 0 -23 -36 -51 -107 -5 -13 -13 -23 -18 -23 -5 0 -7 -8
-4 -19 3 -11 -6 -29 -22 -47 -23 -25 -24 -30 -11 -40 23 -16 20 -32 -6 -36
-17 -2 -22 -9 -20 -25 2 -13 -2 -23 -7 -23 -6 0 -11 -18 -11 -40 0 -22 -4 -40
-10 -40 -15 0 -28 -63 -17 -81 8 -13 6 -21 -7 -34 -9 -10 -16 -27 -15 -39 3
-25 -9 -70 -27 -105 -8 -14 -14 -33 -14 -41 0 -9 -7 -25 -15 -37 -9 -12 -15
-26 -14 -30 1 -4 -1 -21 -6 -37 -4 -16 -9 -36 -10 -45 -3 -31 -19 -76 -37
-108 -14 -23 -18 -41 -13 -63 5 -23 2 -37 -11 -51 -14 -16 -15 -23 -6 -45 16
-35 15 -64 -3 -64 -9 0 -15 -9 -15 -24 0 -13 -7 -29 -15 -36 -13 -11 -13 -15
5 -30 13 -11 18 -24 14 -34 -4 -11 1 -23 16 -33 19 -13 21 -22 17 -67 -3 -28
-10 -71 -16 -96 -35 -155 -36 -163 -20 -140 8 12 9 8 5 -15 -3 -16 -3 -24 0
-17 8 17 24 15 24 -3 0 -8 -4 -15 -10 -15 -16 0 -12 -28 6 -38 19 -10 21 -58
6 -132 -17 -86 -21 -172 -7 -167 7 3 10 -14 7 -59 -4 -53 -2 -64 11 -64 22 0
26 -20 9 -52 -8 -16 -11 -40 -7 -56 3 -16 1 -40 -4 -55 -6 -14 -7 -42 -4 -63
6 -34 7 -35 19 -19 8 10 15 17 17 14 6 -8 27 -100 27 -118 0 -10 7 -21 15 -25
8 -3 15 -15 15 -26 0 -11 7 -23 15 -26 8 -4 15 -19 15 -34 0 -16 5 -32 10 -35
6 -3 10 -18 10 -33 0 -21 2 -24 10 -12 7 11 10 -2 10 -43 0 -36 4 -56 10 -52
5 3 10 -3 10 -14 0 -11 5 -23 10 -26 6 -4 10 8 10 29 0 28 4 36 18 36 15 0 17
-9 16 -75 -1 -42 3 -78 7 -81 4 -2 11 -32 15 -65 4 -39 10 -56 15 -47 13 20
11 6 -6 -42 -8 -23 -15 -60 -15 -82 0 -22 7 -46 15 -54 10 -10 15 -35 15 -73
0 -32 3 -61 6 -64 4 -4 23 7 42 24 22 20 38 27 44 21 6 -6 11 -74 12 -151 1
-117 -1 -141 -13 -141 -12 0 -11 -3 2 -12 14 -12 13 -16 -18 -38 -18 -14 -36
-32 -38 -42 -5 -18 10 -38 30 -38 7 0 13 -11 13 -24 0 -13 4 -26 10 -28 14 -5
24 -180 10 -188 -8 -5 -6 -44 5 -136 9 -72 15 -159 14 -195 -2 -35 3 -93 10
-129 11 -56 10 -66 -3 -76 -9 -6 -16 -16 -16 -21 0 -6 -9 -17 -20 -24 -13 -9
-22 -28 -24 -54 -6 -60 -30 -119 -53 -130 -34 -18 -53 -37 -53 -54 0 -9 -16
-31 -35 -50 -28 -27 -35 -42 -35 -72 0 -29 5 -39 20 -44 12 -4 20 -14 18 -23
-4 -24 10 -42 32 -42 10 0 25 -6 32 -13 18 -18 79 -48 87 -43 9 6 1 -127 -9
-137 -8 -9 10 -57 22 -57 4 0 23 -15 41 -32 71 -67 84 -77 120 -83 33 -6 37
-5 37 13 0 33 -37 109 -91 188 -28 41 -54 74 -58 74 -3 0 -7 40 -9 90 -3 78
-1 91 17 109 13 13 18 27 14 43 -6 21 -5 22 11 9 9 -8 14 -21 11 -30 -8 -20
22 -74 68 -123 27 -28 35 -43 27 -48 -8 -5 -1 -16 22 -34 19 -14 37 -26 40
-26 7 0 -7 77 -21 112 -6 15 -8 35 -4 44 4 10 0 20 -10 26 -10 5 -17 19 -17
32 0 12 -3 26 -7 30 -4 4 -6 24 -5 44 2 28 0 33 -7 22 -9 -13 -11 -13 -11 1 0
8 5 20 12 27 8 8 8 15 -3 28 -17 21 -17 291 0 394 6 36 15 100 20 142 5 42 14
85 19 95 5 10 10 45 11 77 1 32 5 64 9 70 4 6 12 43 17 81 6 39 15 70 20 70 6
0 18 -49 27 -110 42 -265 78 -444 109 -544 46 -147 91 -277 100 -285 5 -6 9
-16 9 -23 0 -7 18 -50 40 -96 28 -59 55 -97 95 -136 69 -65 87 -60 22 6 -26
26 -47 51 -47 56 0 5 12 -5 26 -22 34 -41 99 -78 204 -119 82 -31 83 -32 35
-26 -144 17 106 -51 330 -90 390 -69 771 -66 1205 8 210 36 423 101 472 144
18 15 48 11 48 -7 0 -5 -8 -16 -17 -23 -11 -7 -19 -28 -20 -48 0 -19 -1 -38
-2 -42 -1 -5 -10 -8 -21 -8 -11 0 -20 -4 -20 -10 0 -5 18 -10 40 -10 22 0 40
5 40 10 0 6 7 10 15 10 8 0 15 7 15 15 0 9 11 20 25 25 14 5 25 16 25 25 0 8
8 15 18 15 17 0 40 32 74 103 10 20 25 37 33 37 8 0 15 9 15 20 0 20 34 95 75
165 13 22 24 48 24 58 1 9 5 17 9 17 4 0 16 23 27 51 11 28 26 55 33 61 6 6
12 19 12 29 0 11 4 19 9 19 5 0 19 32 31 70 12 39 26 73 31 76 4 2 6 11 2 19
-3 8 0 15 6 15 6 0 11 7 11 15 0 8 4 15 9 15 5 0 14 20 20 45 6 25 16 45 22
45 6 0 8 8 5 18 -7 19 20 82 34 82 4 0 15 16 24 35 9 19 21 35 26 35 6 0 10 6
10 14 0 8 7 16 15 20 8 3 15 12 15 20 0 8 8 22 17 32 9 9 17 28 18 41 0 27 64
122 83 123 6 0 12 9 12 20 0 18 7 20 80 20 47 0 80 -4 80 -10 0 -5 10 -10 23
-10 18 0 19 -2 7 -10 -12 -8 -11 -10 7 -10 13 0 24 -8 28 -21 5 -16 9 -18 15
-9 6 9 11 7 19 -8 17 -32 14 -41 -26 -57 -35 -15 -39 -15 -51 2 -9 12 -15 14
-20 7 -4 -6 -17 -14 -29 -18 -13 -4 -23 -11 -23 -16 0 -14 35 -30 64 -30 18 0
24 -4 20 -15 -4 -8 -2 -15 3 -15 6 0 23 -13 39 -28 17 -16 37 -31 45 -34 8 -3
20 -23 27 -44 7 -22 18 -49 24 -61 8 -17 7 -30 -6 -58 -16 -33 -16 -38 -1 -68
11 -20 18 -62 20 -109 2 -42 6 -82 10 -89 5 -7 -1 -19 -15 -31 l-22 -18 22 0
c13 0 20 -5 18 -12 -3 -7 -11 -13 -19 -13 -19 0 -43 -46 -29 -55 6 -4 10 -29
9 -56 -1 -27 1 -61 5 -76 7 -22 5 -28 -8 -28 -9 0 -16 -4 -16 -10 0 -5 5 -10
10 -10 6 0 10 -6 10 -14 0 -7 11 -21 25 -30 31 -20 33 -67 4 -111 -10 -16 -23
-39 -27 -50 -13 -30 -22 -175 -11 -175 5 0 9 -21 8 -48 -2 -56 27 -115 59
-120 12 -2 22 -10 22 -18 0 -8 6 -14 13 -14 16 0 50 -34 42 -42 -3 -3 1 -11
10 -18 8 -7 15 -23 15 -36 0 -15 6 -24 16 -24 8 0 27 -13 41 -30 13 -16 31
-30 39 -30 8 0 14 -4 14 -10 0 -5 11 -10 25 -10 20 0 25 -5 25 -25 0 -14 -4
-25 -10 -25 -5 0 -9 -10 -8 -22 1 -13 -2 -38 -6 -55 -7 -30 -5 -33 16 -33 l23
0 -25 -13 c-30 -15 -36 -52 -20 -124 10 -46 9 -56 -9 -92 -12 -22 -25 -42 -31
-46 -5 -3 -10 -15 -10 -26 0 -10 -7 -19 -15 -19 -8 0 -15 -4 -15 -10 0 -5 7
-10 15 -10 8 0 15 -7 15 -16 0 -12 -6 -15 -20 -10 -11 3 -29 9 -40 12 -25 8
-27 -14 -2 -32 16 -13 16 -13 0 -14 -10 0 -18 -7 -18 -15 0 -8 -6 -15 -12 -15
-16 -1 -68 -45 -68 -58 0 -5 -9 -17 -20 -27 -11 -10 -20 -24 -20 -32 0 -7 -9
-13 -20 -13 -13 0 -18 -5 -14 -15 7 -17 -25 -20 -61 -6 -12 5 -25 3 -33 -6 -8
-8 -30 -13 -53 -11 -25 1 -57 -7 -88 -23 -62 -30 -79 -75 -54 -139 13 -32 13
-42 3 -55 -7 -8 -18 -15 -25 -15 -7 0 -15 -7 -19 -15 -3 -9 -18 -15 -35 -15
-49 0 -77 -19 -91 -61 -15 -45 -44 -52 -73 -18 -10 11 -25 18 -33 15 -21 -8
-114 14 -115 27 -1 7 -1 18 0 25 1 6 -5 12 -14 12 -8 0 -15 -4 -15 -10 0 -5
-4 -10 -10 -10 -5 0 -10 6 -10 14 0 9 -7 12 -19 9 -23 -6 -34 10 -26 38 5 16
12 19 31 15 18 -5 22 -3 18 9 -4 8 -1 15 5 15 6 0 11 7 11 15 0 16 -35 21 -45
5 -3 -6 -15 -6 -30 0 -16 6 -25 5 -27 -2 -3 -8 -10 -7 -26 1 -23 12 -30 41
-10 41 9 0 8 3 -1 13 -11 9 -14 10 -18 0 -3 -7 -13 -13 -24 -13 -16 0 -19 -7
-19 -40 0 -22 -4 -40 -10 -40 -5 0 -10 6 -10 13 0 8 -9 22 -20 32 -27 25 -25
35 8 35 23 1 24 2 10 11 -28 16 -21 27 22 39 24 6 40 17 40 25 0 15 11 17 100
20 19 1 52 3 72 3 26 2 46 11 71 35 19 18 40 31 46 29 17 -6 13 9 -6 25 -51
41 -176 75 -274 74 -62 0 -131 -20 -144 -41 -3 -5 -22 -17 -42 -27 -20 -9 -38
-25 -41 -35 -2 -10 -13 -18 -23 -18 -14 0 -19 -7 -19 -26 0 -16 4 -23 11 -18
10 6 28 -12 29 -28 0 -4 -11 -15 -25 -24 -24 -16 -26 -15 -61 15 -26 24 -41
30 -57 25 -29 -9 -29 -8 -21 -28 4 -11 14 -16 25 -13 16 4 19 -1 19 -29 0 -34
1 -35 34 -29 19 4 43 2 55 -4 24 -13 28 -41 6 -41 -8 0 -15 -9 -15 -20 0 -25
12 -25 35 0 34 38 72 16 49 -28 -8 -15 -14 -34 -13 -42 0 -10 2 -11 6 -2 2 6
9 10 14 6 12 -7 12 -74 -1 -74 -5 0 -10 -10 -9 -22 0 -13 3 -17 6 -10 7 18 50
15 58 -5 7 -17 8 -16 14 2 7 17 8 17 15 -8 6 -26 21 -33 69 -29 9 1 17 -5 17
-13 0 -9 -10 -15 -26 -15 -14 0 -35 -5 -47 -11 -16 -9 -22 -9 -25 0 -6 18 -22
13 -22 -8 0 -32 -21 -35 -45 -7 -16 19 -32 26 -59 26 -32 0 -36 -3 -36 -26 0
-21 -3 -24 -13 -16 -10 9 -16 4 -24 -18 -11 -28 -10 -30 13 -30 15 0 24 -6 24
-15 0 -9 9 -15 25 -15 14 0 25 -4 25 -10 0 -14 -33 -13 -47 1 -14 14 -34 3
-27 -15 3 -7 -2 -16 -10 -19 -9 -4 -16 -14 -16 -24 0 -16 -1 -16 -16 -1 -16
15 -16 18 0 34 14 14 15 19 4 25 -8 5 -14 4 -16 -4 -4 -19 -75 -47 -84 -33 -7
10 -13 -6 -9 -27 1 -4 -6 -10 -14 -13 -8 -4 -15 -14 -15 -24 0 -9 -9 -25 -20
-35 -23 -21 -26 -41 -7 -48 6 -3 -5 -3 -25 0 -40 6 -95 -4 -84 -14 4 -4 27 -6
51 -4 25 1 45 -2 45 -7 0 -6 3 -19 6 -29 4 -14 4 -15 -4 -4 -11 15 -35 5 -29
-12 2 -7 -2 -18 -10 -25 -15 -16 -17 -42 -3 -42 6 0 15 11 20 25 6 15 17 25
30 25 24 0 25 -8 3 -32 -24 -27 -4 -38 59 -32 29 3 48 0 48 -6 0 -5 5 -10 11
-10 8 0 7 5 -1 15 -10 12 -10 19 -2 27 9 9 12 9 12 0 0 -19 16 -14 50 15 25
21 33 24 40 12 5 -8 4 -19 -2 -26 -6 -8 -8 -16 -5 -19 8 -8 97 18 97 28 0 4 9
8 19 8 11 0 23 4 26 10 3 6 24 10 46 10 36 0 40 -2 34 -20 -5 -16 -2 -20 14
-20 12 0 21 -5 21 -11 0 -5 4 -7 10 -4 6 3 10 19 10 35 0 16 4 32 10 35 6 3
10 -2 10 -13 0 -26 11 -34 27 -21 10 9 13 6 13 -15 0 -19 5 -26 20 -26 16 0
19 -5 14 -24 -8 -34 15 -45 37 -18 9 12 20 22 25 22 4 0 12 8 19 17 11 14 15
15 29 4 13 -11 18 -8 37 24 20 33 24 35 34 21 19 -25 27 -19 20 14 -4 19 -3
30 4 30 13 0 51 -36 51 -48 0 -4 14 -16 31 -26 17 -10 28 -20 25 -23 -3 -3 15
-16 40 -29 25 -13 56 -34 69 -48 30 -32 81 -41 158 -26 49 9 72 20 107 51 25
21 48 39 53 39 4 0 7 15 7 33 0 48 21 88 43 81 27 -9 51 4 70 36 21 35 48 39
77 10 24 -24 59 -26 75 -3 12 16 14 16 41 -2 16 -10 37 -28 46 -39 10 -12 22
-26 28 -33 13 -15 13 -40 0 -48 -15 -10 -12 -35 5 -35 8 0 15 7 15 15 0 8 3
15 6 15 3 0 12 -7 20 -15 9 -9 34 -15 59 -15 61 0 95 -15 95 -41 0 -12 -8 -23
-19 -26 -11 -3 -17 -11 -15 -18 8 -20 -18 -30 -31 -12 -9 12 -25 16 -62 14
-28 -1 -49 -5 -47 -8 2 -4 -3 -12 -11 -19 -12 -10 -18 -10 -30 0 -8 7 -12 16
-9 21 3 5 0 9 -5 9 -6 0 -11 -9 -11 -19 0 -20 -37 -31 -120 -36 -19 -1 -36 -7
-38 -14 -2 -6 -15 -11 -28 -11 -13 0 -24 -4 -24 -10 0 -5 -12 -13 -27 -16 -16
-4 -37 -13 -48 -20 -11 -8 -34 -14 -53 -14 -18 0 -56 -12 -84 -26 -34 -17 -54
-22 -56 -15 -2 7 -21 9 -58 5 -44 -6 -55 -4 -60 10 -4 10 -18 16 -36 16 -16 0
-49 5 -73 11 -36 9 -49 8 -76 -5 -42 -21 -85 -21 -98 2 -9 16 -10 16 -16 0 -6
-15 -20 -18 -76 -18 -38 0 -69 -3 -69 -8 0 -4 -36 -16 -80 -26 -44 -11 -80
-25 -80 -31 0 -8 -33 -16 -87 -22 -49 -6 -115 -18 -148 -28 -49 -14 -66 -15
-96 -5 -27 9 -41 9 -57 1 -11 -6 -60 -11 -109 -11 -115 1 -234 29 -269 65 -9
8 -27 15 -42 15 -21 0 -24 2 -12 10 13 9 13 11 0 20 -8 5 -22 10 -30 11 -11 0
-11 2 -2 6 10 4 10 8 1 19 -17 21 -29 17 -29 -11 0 -14 -3 -25 -7 -25 -11 0
-40 20 -30 20 12 0 -23 61 -49 85 -21 20 -22 24 -9 35 24 20 17 31 -10 18 -16
-7 -24 -17 -20 -26 3 -7 5 -18 5 -23 0 -5 9 -9 20 -9 29 0 25 -18 -11 -51 -34
-31 -49 -36 -50 -16 0 6 -6 0 -12 -14 -7 -14 -18 -34 -26 -43 -21 -25 -26
-170 -6 -189 8 -9 15 -22 15 -29 1 -7 7 -24 15 -38 l14 -25 1 24 c0 16 4 21
15 17 15 -5 29 6 55 43 8 11 19 21 26 21 6 0 21 9 34 20 12 11 27 17 32 14 5
-3 17 1 26 9 22 19 132 23 132 4 0 -12 44 -37 67 -37 7 0 13 -4 13 -10 0 -5 5
-10 11 -10 12 0 69 -58 69 -70 0 -4 21 -11 47 -15 26 -4 58 -15 71 -26 14 -10
33 -19 43 -19 11 0 28 -9 38 -19 10 -10 30 -22 43 -26 12 -4 32 -15 43 -25 14
-12 30 -16 53 -13 17 3 32 9 32 13 0 4 10 18 21 31 15 16 23 20 26 12 6 -18
50 -16 57 2 3 10 19 15 46 15 25 0 40 5 40 13 1 21 37 57 59 57 11 0 30 -10
41 -22 21 -22 22 -22 35 -5 16 22 51 18 47 -5 -4 -23 16 -32 60 -29 21 1 38
-2 38 -8 0 -5 12 -16 28 -23 23 -12 27 -20 27 -58 1 -55 13 -110 26 -110 5 0
9 -20 9 -45 0 -25 5 -45 10 -45 17 0 11 -18 -7 -22 -13 -3 -7 -9 21 -23 22
-11 41 -26 42 -33 1 -7 0 -8 -3 -2 -7 14 -22 13 -39 -4 -16 -16 -19 -42 -5
-50 11 -7 2 -46 -10 -46 -4 0 -12 8 -18 17 -5 10 -13 14 -17 10 -5 -4 -3 -17
4 -27 22 -36 15 -50 -27 -50 -33 0 -40 -4 -45 -24 -3 -13 -9 -31 -12 -40 -4
-11 -1 -16 10 -16 19 0 28 -31 24 -80 l-3 -35 69 -1 c55 -1 72 -5 83 -20 11
-15 24 -18 65 -15 47 3 50 2 35 -13 -8 -9 -23 -16 -32 -16 -9 0 -18 -12 -22
-31 -3 -17 -9 -26 -12 -21 -3 6 -11 0 -18 -13 -11 -24 -11 -24 36 -18 25 3 51
10 57 15 8 5 13 -3 17 -26 5 -31 -3 -72 -22 -116 -9 -19 -2 -50 10 -50 6 0 18
13 27 30 20 35 28 37 35 9 3 -12 10 -18 15 -15 14 8 45 -31 39 -49 -5 -11 0
-15 20 -15 21 0 24 2 13 15 -7 8 -11 15 -9 16 2 0 13 2 24 4 11 2 27 13 37 24
12 16 28 21 67 21 50 0 51 -1 51 -30 0 -20 5 -30 15 -30 8 0 15 -4 15 -10 0
-5 -7 -10 -15 -10 -8 0 -15 -4 -15 -10 0 -5 18 -10 40 -10 22 0 40 5 40 10 0
6 13 10 29 10 21 0 31 -6 36 -22 8 -22 8 -22 12 4 3 18 14 30 36 39 18 6 38
19 44 27 11 13 17 13 40 3 l28 -13 -24 -19 -23 -19 31 0 c28 0 31 -3 31 -31 0
-31 -1 -32 -40 -26 l-40 5 0 -47 c0 -26 6 -53 13 -60 10 -11 10 -14 0 -18 -7
-3 -13 -18 -13 -34 0 -26 -4 -29 -30 -29 -16 0 -30 5 -30 11 0 5 -5 7 -10 4
-6 -3 -10 -16 -10 -28 -1 -20 -2 -21 -14 -4 -16 21 -32 22 -40 2 -3 -8 -14
-15 -25 -15 -29 0 -53 -29 -49 -59 4 -38 -25 -34 -32 4 -5 25 -7 27 -11 10 -6
-20 -30 -35 -84 -51 -20 -6 -30 -16 -30 -28 0 -39 -31 -26 -70 29 -14 19 -14
19 -15 -7 0 -16 4 -28 9 -28 16 0 21 -73 7 -90 -10 -10 -13 -30 -9 -65 4 -40
3 -48 -7 -38 -7 7 -14 28 -15 49 -1 20 -9 44 -17 53 -8 9 -17 25 -21 35 -8 20
-27 13 -27 -11 0 -11 -6 -14 -22 -9 -13 4 -38 9 -55 13 -28 5 -33 10 -33 34 0
21 6 29 23 32 l22 4 -22 8 c-13 4 -23 12 -23 19 0 6 -11 -1 -25 -16 -14 -15
-25 -32 -25 -37 0 -20 -39 -32 -74 -22 -38 10 -46 7 -46 -21 0 -28 -17 -21
-28 11 -6 18 -17 28 -27 28 -24 -3 -45 31 -27 42 8 5 12 17 10 27 -4 16 -7 15
-16 -8 -16 -40 -46 -36 -66 7 -19 39 -56 49 -56 16 0 -11 -4 -23 -10 -26 -5
-3 -10 -1 -10 4 0 6 -6 11 -14 11 -8 0 -17 13 -21 30 -5 25 -11 30 -36 30 -26
0 -29 3 -29 33 0 18 7 42 15 53 21 27 18 49 -9 79 l-24 26 -23 -38 c-13 -21
-25 -40 -28 -43 -4 -3 -11 -14 -17 -24 -6 -11 -16 -22 -22 -24 -14 -4 -16 34
-2 43 6 3 10 15 10 26 0 18 -3 17 -24 -8 l-24 -28 5 28 c6 33 -8 35 -48 6 -35
-25 -38 -16 -5 14 27 24 44 67 27 67 -6 0 -29 -18 -51 -40 -41 -41 -67 -52
-56 -25 4 11 -1 15 -19 15 -22 0 -25 4 -25 38 0 21 5 43 10 48 7 7 1 9 -20 6
-17 -2 -37 -14 -45 -25 -15 -21 -15 -21 -16 -2 -3 63 0 90 10 93 6 2 11 13 11
23 0 11 5 29 10 39 8 16 8 18 -5 14 -8 -4 -15 -11 -15 -18 0 -17 -48 -69 -58
-62 -4 2 -21 -4 -38 -15 -16 -10 -39 -19 -51 -19 -34 0 -94 -32 -92 -49 3 -32
-2 -39 -33 -44 -18 -3 -40 -8 -49 -12 -12 -4 -18 1 -21 19 -3 16 -1 23 8 19 6
-2 29 13 51 35 21 22 53 47 71 56 41 21 42 40 2 31 -25 -6 -30 -3 -30 12 0 13
12 24 35 33 19 8 35 19 35 26 0 7 2 18 3 26 2 7 2 10 0 6 -6 -11 -73 -10 -73
0 0 5 11 15 25 22 24 13 34 30 17 30 -5 0 -22 -6 -38 -14 -40 -20 -84 -30 -84
-19 0 4 18 19 40 33 42 26 48 35 28 43 -8 2 4 20 30 44 23 21 39 42 36 46 -16
16 -63 6 -88 -19 -19 -20 -26 -23 -26 -11 0 15 -11 16 -62 8 -5 0 -8 -7 -8
-13 -1 -7 -10 -24 -20 -37 -17 -19 -26 -23 -56 -18 -34 6 -35 5 -21 -11 22
-24 2 -48 -46 -57 -21 -4 -40 -11 -43 -16 -3 -5 -10 -9 -16 -9 -20 0 11 26 52
45 48 21 51 35 10 35 -16 0 -30 -4 -30 -10 0 -5 -12 -13 -27 -16 -40 -10 -45
-14 -33 -29 17 -21 -76 -55 -147 -54 -32 1 -48 4 -35 6 13 3 32 13 43 24 19
19 19 19 -13 19 -30 1 -32 2 -15 15 18 13 18 14 -2 25 -12 6 -26 8 -32 5 -14
-9 -59 3 -59 16 0 17 -27 39 -47 39 -22 0 -53 33 -53 56 0 8 -4 13 -9 9 -5 -3
-12 -1 -15 4 -7 10 16 21 45 21 11 0 17 5 14 10 -3 6 -28 10 -54 10 -52 0
-111 16 -111 31 0 12 17 11 40 -1 16 -8 18 -7 14 4 -3 8 -25 24 -48 35 -26 12
-46 29 -49 42 -5 18 -10 21 -40 15 -38 -7 -55 11 -34 34 8 8 8 11 1 7 -11 -6
-110 25 -123 39 -3 3 9 3 27 -1 36 -8 45 9 10 19 l-23 7 25 11 c16 6 20 12 12
15 -7 3 -25 16 -39 29 -14 13 -30 24 -36 24 -5 0 -7 7 -3 15 3 9 0 15 -9 15
-8 0 -26 18 -40 41 -19 29 -31 38 -43 35 -10 -3 -32 -2 -50 3 -17 5 -32 7 -32
3 1 -19 22 -36 46 -37 15 0 29 -6 31 -12 3 -9 -6 -13 -27 -13 -18 0 -29 -4
-25 -10 3 -5 17 -10 31 -10 18 0 24 -6 25 -22 0 -13 3 -17 6 -10 2 6 9 12 14
12 6 0 8 -4 5 -9 -4 -5 1 -23 9 -40 8 -17 22 -45 30 -63 13 -25 13 -33 3 -40
-9 -7 -6 -8 9 -5 23 5 83 -26 83 -43 0 -6 4 -9 9 -5 5 3 13 0 17 -6 5 -9 -1
-10 -19 -5 -24 6 -25 4 -18 -22 4 -15 17 -32 28 -37 11 -6 37 -25 57 -43 34
-30 36 -34 21 -48 -9 -9 -14 -23 -11 -31 3 -8 6 -17 6 -19 0 -2 6 -4 13 -4 8
0 22 -9 31 -19 11 -12 25 -17 34 -13 15 5 16 4 2 -13 -14 -17 -14 -18 9 -6 24
13 27 12 111 -29 8 -4 14 -15 14 -24 -1 -9 5 -16 12 -16 8 0 17 -7 20 -15 9
-24 61 -75 75 -75 8 0 5 -8 -8 -19 -16 -15 -30 -18 -63 -14 -31 4 -41 3 -36
-5 4 -7 13 -12 20 -12 8 0 19 -7 26 -15 7 -8 17 -12 22 -9 17 11 72 -19 119
-63 25 -25 52 -44 60 -43 27 4 37 0 42 -20 3 -13 17 -22 36 -26 30 -6 39 -18
23 -28 -5 -3 -8 -15 -7 -28 1 -19 7 -23 31 -20 l29 3 -27 -18 c-36 -22 -35
-29 2 -37 35 -7 40 -25 8 -27 -21 -1 -21 -2 -3 -6 20 -5 65 -51 65 -66 0 -5 6
-7 12 -5 7 3 21 -6 31 -19 10 -12 24 -22 30 -20 7 1 11 -6 9 -16 -3 -20 49
-75 66 -69 6 2 19 -1 29 -7 16 -9 16 -10 -5 -11 -22 0 -22 -1 9 -27 18 -16 35
-27 38 -26 12 3 61 -32 61 -44 0 -7 7 -13 16 -13 14 0 14 -3 4 -15 -10 -13 -9
-15 9 -15 11 0 21 -4 21 -10 0 -5 6 -10 13 -10 18 0 67 -42 67 -58 0 -7 15
-12 40 -12 36 0 54 -13 32 -22 -5 -1 -11 -19 -15 -38 -3 -19 -3 -29 0 -22 2 6
14 12 25 12 15 0 18 4 13 21 l-7 21 21 -21 c25 -25 30 -51 6 -31 -18 15 -19 1
-2 -21 8 -10 26 -15 50 -15 23 1 43 -4 50 -13 10 -12 7 -13 -20 -8 -41 8 -51
-7 -15 -22 15 -6 33 -21 41 -33 12 -19 11 -20 -11 -14 -46 13 -83 19 -77 12 4
-4 41 -24 83 -45 l76 -39 -17 32 c-38 73 -37 69 -11 63 12 -4 28 -7 34 -7 6 0
21 -9 34 -20 33 -29 47 -25 42 10 -4 31 11 41 25 16 4 -8 17 -14 27 -13 29 3
31 -21 2 -29 -14 -3 -23 -10 -21 -15 3 -4 13 -5 21 -2 9 3 20 0 24 -7 13 -20
43 8 36 33 -4 17 -1 19 31 14 19 -4 44 -14 54 -23 10 -9 22 -13 28 -10 5 3 16
-1 24 -9 9 -8 25 -15 36 -15 13 0 21 -6 21 -16 0 -14 3 -14 15 -4 12 10 18 10
30 0 8 -7 15 -19 15 -26 0 -8 5 -14 11 -14 6 0 21 -8 34 -18 l22 -18 -23 -11
c-13 -6 -22 -7 -18 -2 3 5 1 9 -4 9 -5 0 -12 9 -15 20 -4 16 -9 18 -29 11 -18
-6 -27 -4 -40 12 -10 11 -18 15 -18 9 0 -12 47 -62 101 -107 19 -17 41 -45 48
-62 16 -38 28 -42 34 -11 4 20 4 19 6 -4 0 -16 6 -28 12 -28 6 0 8 9 3 23 -5
17 4 12 42 -23 51 -47 56 -65 28 -104 -10 -15 -14 -16 -14 -5 0 16 -39 54 -47
45 -8 -8 48 -76 63 -76 8 0 14 -7 14 -15 0 -8 8 -28 18 -45 14 -23 21 -27 30
-18 17 17 15 38 -3 38 -17 0 -19 9 -6 29 27 43 51 -63 27 -120 -15 -35 -12
-79 5 -79 5 0 9 14 9 30 0 32 17 41 27 14 3 -8 12 -13 19 -10 8 3 28 -8 46
-24 18 -17 37 -30 42 -30 5 0 6 -15 3 -34 -5 -29 -3 -33 13 -29 26 7 36 -50
17 -97 -20 -47 -11 -99 23 -131 16 -16 30 -43 34 -65 4 -22 9 -54 12 -72 4
-22 1 -39 -8 -50 -16 -19 -13 -112 3 -112 5 0 9 -25 9 -55 l0 -55 -47 -22
c-46 -22 -47 -23 -20 -26 19 -2 31 -11 38 -28 13 -36 11 -54 -6 -54 -20 0 -19
-14 1 -31 11 -9 14 -22 10 -43 -4 -22 -3 -26 3 -16 11 17 13 16 35 -27 21 -42
21 -43 -9 -43 -16 0 -25 -6 -25 -15 0 -8 4 -15 8 -15 5 0 14 -11 20 -25 10
-22 9 -25 -8 -25 -11 0 -20 -7 -20 -15 0 -9 -12 -27 -27 -40 -19 -16 -23 -24
-13 -25 17 0 40 -44 40 -75 0 -15 -12 -27 -40 -41 -40 -19 -54 -44 -24 -44 20
0 13 -24 -9 -28 -10 -2 -17 3 -17 12 0 9 -8 16 -20 16 -17 0 -20 -7 -20 -39 0
-36 3 -40 28 -43 25 -4 24 -5 -15 -17 -24 -8 -43 -17 -43 -21 0 -4 12 -13 28
-20 l27 -14 -27 -4 c-43 -5 -33 -22 12 -22 38 0 40 -2 40 -30 0 -28 -2 -30
-40 -30 -36 0 -40 -3 -40 -25 0 -23 -3 -24 -45 -21 -25 2 -52 10 -61 17 -14
11 -19 9 -35 -11 -26 -35 -24 -40 21 -40 51 0 120 -21 120 -37 0 -7 -19 -17
-42 -24 -39 -10 -41 -12 -20 -20 12 -5 22 -14 22 -21 0 -7 9 -24 20 -38 18
-22 20 -23 20 -5 0 28 16 8 34 -45 11 -32 12 -48 4 -57 -20 -25 -38 -15 -38
22 0 34 -1 35 -40 35 -36 0 -40 -2 -40 -25 0 -28 -21 -33 -40 -10 -7 8 -19 15
-26 15 -8 0 -14 6 -14 14 0 10 -13 16 -37 18 -35 3 -38 6 -43 37 l-5 33 -25
-20 c-21 -17 -22 -21 -10 -35 30 -33 40 -46 40 -54 0 -5 18 -7 40 -5 25 3 40
0 40 -7 0 -6 10 -11 23 -11 l22 -1 -22 -18 c-13 -11 -23 -24 -23 -30 0 -6 -18
-11 -40 -11 -38 0 -40 2 -40 30 0 43 -23 38 -45 -10 -16 -35 -22 -40 -50 -40
-20 0 -35 -6 -39 -15 -3 -8 -14 -15 -24 -15 -10 0 -29 -11 -42 -25 -13 -14
-33 -25 -45 -25 -24 0 -66 -71 -46 -78 6 -2 11 -21 11 -43 0 -32 -4 -39 -19
-39 -14 0 -21 8 -23 29 l-3 29 -37 -15 c-23 -9 -38 -22 -38 -32 0 -10 -11 -28
-25 -41 -14 -13 -25 -29 -25 -37 0 -7 -4 -13 -10 -13 -5 0 -28 -18 -52 -40
-32 -29 -52 -40 -75 -40 -22 0 -37 -7 -45 -20 -7 -11 -17 -20 -23 -20 -5 0
-21 -9 -35 -20 -20 -16 -22 -20 -7 -20 9 0 17 -4 17 -10 0 -13 -17 -13 -25 0
-4 6 -31 10 -61 9 -36 -2 -59 2 -71 13 -10 8 -40 20 -66 27 -45 11 -65 24
-121 78 -13 13 -31 23 -40 23 -9 0 -33 16 -52 36 -20 19 -47 39 -60 44 -13 5
-24 16 -24 25 0 8 -9 15 -20 15 -13 0 -28 12 -38 30 -9 16 -25 30 -35 30 -10
0 -28 10 -40 22 -13 13 -32 23 -42 23 -11 0 -24 10 -30 21 -6 12 -32 38 -58
58 -25 19 -55 44 -65 54 -11 11 -40 22 -66 26 -30 5 -46 12 -46 22 0 8 -9 14
-20 14 -11 0 -20 6 -20 13 0 7 -20 19 -45 26 -25 7 -45 19 -45 26 0 8 -24 25
-52 39 -75 37 -111 63 -174 124 -7 6 -17 12 -23 12 -6 0 -11 5 -11 11 0 5 -16
17 -35 25 -19 8 -35 20 -35 28 0 7 -12 19 -27 25 -33 14 -93 66 -93 81 0 5 -6
10 -13 10 -7 0 -23 14 -37 30 -14 17 -30 30 -37 30 -7 0 -13 6 -13 14 0 8 -19
33 -43 57 -23 24 -53 60 -67 79 -13 19 -31 42 -39 51 -9 9 -23 27 -31 39 -8
13 -25 35 -37 50 -13 15 -23 35 -23 43 0 8 -6 17 -14 20 -7 3 -17 22 -20 42
-4 20 -16 45 -27 56 -11 11 -22 33 -26 49 -3 16 -12 35 -19 41 -8 6 -14 20
-14 31 0 10 -7 30 -16 43 -9 14 -13 25 -9 25 3 0 -3 12 -14 26 -12 15 -21 37
-21 50 0 12 -7 29 -15 38 -8 8 -15 19 -15 25 0 14 -33 85 -43 92 -5 3 -8 9 -8
13 4 29 -1 57 -14 70 -8 8 -29 56 -45 107 -17 51 -34 97 -39 103 -5 6 -12 31
-16 56 -4 24 -18 58 -30 75 -14 18 -25 52 -29 87 -4 31 -15 72 -25 92 -10 19
-16 46 -14 59 3 14 0 28 -6 31 -5 4 -8 13 -5 21 3 7 1 23 -5 34 -6 11 -14 96
-16 190 -5 143 -3 172 10 184 8 9 15 25 15 35 0 31 11 52 26 52 7 0 16 16 20
35 3 19 10 38 15 41 5 3 7 9 4 14 -6 10 14 50 30 62 6 4 23 8 39 8 28 0 28 1
22 38 -5 37 -4 39 29 52 19 8 35 18 35 23 0 5 -7 7 -15 3 -8 -3 -15 -3 -15 -1
0 9 120 125 128 125 12 0 37 49 29 57 -8 7 -110 -13 -142 -29 -12 -5 -27 -10
-35 -11 -31 -5 -150 -71 -204 -113 -57 -45 -115 -124 -116 -157 0 -10 -5 -28
-11 -39 -20 -36 -41 -314 -34 -437 11 -187 36 -294 103 -448 22 -50 37 -94 34
-97 -3 -3 0 -6 6 -6 7 0 12 -9 12 -19 0 -11 5 -23 10 -26 6 -3 10 -17 10 -31
0 -13 5 -24 10 -24 6 0 10 -13 10 -30 0 -16 3 -30 8 -30 8 0 43 -67 63 -120 7
-19 18 -42 26 -51 7 -8 13 -19 13 -22 0 -24 93 -200 129 -243 5 -6 17 -26 26
-45 15 -28 81 -131 145 -225 113 -165 262 -354 291 -368 11 -5 19 -13 19 -17
0 -13 24 -40 138 -156 56 -57 102 -108 102 -114 0 -5 3 -9 8 -9 4 0 45 -36 92
-80 47 -45 107 -100 134 -123 27 -23 81 -69 120 -103 39 -33 107 -88 151 -122
44 -34 98 -78 121 -97 22 -19 57 -46 78 -60 20 -13 62 -44 94 -67 31 -24 72
-53 90 -65 18 -13 38 -27 45 -33 30 -25 108 -80 112 -80 3 0 26 -16 52 -36 26
-20 56 -40 68 -44 11 -4 43 -23 71 -41 29 -19 78 -50 109 -69 32 -19 63 -40
69 -46 6 -5 58 -45 116 -88 58 -44 130 -100 160 -125 58 -49 98 -71 130 -71
11 0 20 -4 20 -9 0 -5 19 -14 43 -20 23 -6 71 -17 107 -26 36 -9 79 -21 95
-27 17 -5 55 -14 85 -18 30 -4 69 -14 85 -21 48 -20 426 -17 540 4 104 20 208
51 280 82 28 12 67 25 88 29 20 4 37 11 37 16 0 6 18 13 40 16 32 5 55 22 121
85 45 44 86 79 90 79 4 0 11 9 14 21 4 11 17 25 30 31 32 15 52 53 36 72 -10
12 -9 14 8 9 14 -4 23 1 28 13 4 11 21 33 37 51 57 60 76 83 96 121 11 20 25
44 30 52 33 53 90 154 114 205 31 64 68 138 165 332 33 67 61 128 61 137 0 8
31 93 68 188 38 95 74 193 81 218 32 108 89 270 117 337 8 17 14 38 14 47 0 9
9 39 20 68 27 72 89 305 107 403 37 212 43 539 9 587 -9 12 -16 32 -16 44 0
30 -31 126 -47 145 -7 8 -13 25 -13 37 0 12 -4 22 -10 22 -5 0 -7 7 -4 15 4 8
2 15 -4 15 -6 0 -8 9 -5 20 3 12 -2 29 -11 39 -9 10 -13 21 -10 24 4 4 2 12
-3 19 -6 7 -11 20 -12 28 -1 8 -4 34 -7 57 -5 34 -3 42 13 46 15 4 14 5 -4 6
-18 1 -24 9 -29 41 -4 22 -11 40 -16 40 -5 0 -4 9 2 21 13 23 14 22 -18 38
-13 7 -21 15 -19 18 3 2 -12 28 -34 56 -22 29 -43 65 -46 80 -4 21 -10 27 -24
24 -12 -3 -16 0 -12 9 3 7 -8 25 -23 39 -15 14 -28 35 -29 46 -1 12 -6 24 -12
27 -41 27 -40 307 3 927 8 110 14 212 14 228 0 28 23 38 34 15 3 -7 4 -4 3 8
-1 11 4 28 11 36 10 13 10 24 -2 59 -17 49 -8 71 20 48 16 -13 17 -12 10 13
-5 21 -3 28 9 28 8 0 15 9 15 20 0 11 7 20 15 20 10 0 15 10 15 29 0 17 4 32
9 35 4 3 6 16 4 30 -6 32 12 41 43 22 23 -16 25 -16 34 9 6 15 10 35 10 46 0
12 7 19 20 19 15 0 20 7 20 26 0 21 3 24 21 19 18 -6 20 -4 14 14 -4 15 -2 21
8 21 9 0 14 11 15 33 0 17 1 42 2 55 0 24 24 30 36 10 10 -16 22 21 23 71 1
24 5 32 15 28 10 -4 15 7 20 43 6 43 9 48 29 43 16 -3 18 -2 9 5 -11 7 -11 10
2 15 9 4 16 15 16 25 0 10 7 27 16 38 8 10 13 13 9 7 -4 -8 0 -13 9 -13 9 0
16 -4 16 -10 0 -5 5 -10 11 -10 9 0 7 16 -8 58 -3 6 1 12 8 12 11 0 13 13 11
50 -3 41 -1 50 12 50 9 0 16 8 16 19 0 11 4 23 10 26 5 3 10 17 10 31 0 13 5
24 11 24 6 0 8 7 5 16 -3 8 1 25 8 37 8 12 14 39 14 59 0 34 5 44 40 83 6 7
12 21 12 30 0 9 7 30 16 46 8 17 13 37 10 45 -3 8 1 17 9 20 8 4 12 10 9 15
-2 5 1 19 8 31 6 13 11 31 9 41 -2 13 3 17 15 15 9 -2 19 3 21 10 3 6 0 12 -6
12 -6 0 -11 11 -11 25 0 22 3 25 26 19 24 -6 25 -5 12 15 -11 18 -11 23 2 32
13 9 13 9 0 7 -9 -2 -18 2 -20 7 -3 6 7 11 23 13 24 3 27 7 27 43 0 36 14 53
22 28 2 -7 10 -10 17 -8 9 3 7 11 -8 30 -12 16 -18 34 -14 48 5 19 10 21 42
15 l36 -7 -23 19 c-17 15 -23 32 -26 77 -2 31 -1 57 3 57 3 0 19 11 35 25 17
14 36 23 43 21 10 -4 13 12 13 68 0 73 19 143 35 129 4 -5 5 19 2 53 -5 52 -3
67 18 107 14 25 22 52 19 60 -3 8 -1 18 5 22 6 3 11 26 11 50 0 24 9 64 20 90
11 26 20 58 20 71 0 13 4 24 9 24 4 0 14 21 21 48 7 26 20 61 28 77 8 17 21
50 28 75 23 80 47 145 56 148 4 2 8 21 8 42 0 21 9 67 20 102 11 34 20 75 20
90 0 15 15 47 35 72 19 26 35 51 35 56 0 6 4 10 9 10 5 0 17 17 26 38 10 20
32 69 50 107 37 80 58 132 86 219 11 34 24 70 29 81 29 65 104 363 141 555 15
78 38 145 62 181 27 40 86 76 138 83 83 12 84 13 87 188 4 181 6 177 -103 201
-72 16 -289 50 -405 62 -71 8 -110 20 -110 33 0 5 9 19 20 32 26 29 41 84 33
121 -4 20 -1 29 7 29 9 0 11 11 7 35 -4 21 -2 35 5 35 6 0 8 9 5 20 -5 19 -2
20 30 14 36 -7 36 -6 28 22 -4 16 -7 46 -6 67 0 21 -4 37 -11 37 -6 0 -8 3 -5
7 4 3 16 -2 27 -12 27 -25 35 -13 16 24 -9 16 -16 37 -16 45 0 8 -6 16 -12 19
-10 3 -10 8 -2 16 8 9 14 8 24 -4 22 -26 37 -18 32 18 l-5 32 20 -22 c30 -34
35 -28 12 12 l-21 35 32 -11 c17 -6 34 -9 37 -5 4 3 -1 6 -11 6 -9 0 -14 4
-11 10 3 5 -6 27 -20 47 -32 48 -33 83 -2 83 12 0 33 -7 45 -16 25 -17 30 -3
6 21 -10 10 -13 22 -9 33 4 9 7 32 6 50 -2 30 0 33 18 27 27 -8 28 14 1 48
-27 33 -39 90 -18 82 8 -3 21 1 28 10 11 13 10 19 -7 38 -26 28 -40 82 -20 74
9 -3 23 6 35 22 19 26 19 31 6 56 -18 35 -18 35 6 35 13 0 20 7 20 20 0 11 5
20 10 20 14 0 12 27 -2 34 -10 5 -10 7 0 12 9 4 8 13 -5 36 -17 27 -17 30 -1
39 10 5 14 17 11 29 -3 11 -2 27 1 36 5 14 10 13 40 -5 49 -30 49 -26 0 25
-24 25 -44 49 -44 54 0 5 -7 16 -15 24 -12 12 -14 20 -5 36 12 22 25 26 35 10
3 -5 11 -10 16 -10 6 0 -3 19 -20 43 -26 36 -30 49 -26 89 4 36 1 47 -11 52
-12 5 -14 9 -5 20 8 10 5 19 -14 40 -30 33 -31 36 -5 36 10 0 28 -10 40 -22
l20 -22 0 22 c0 12 -17 38 -40 59 -22 21 -40 45 -40 53 0 11 3 11 12 2 14 -14
68 -16 68 -2 0 5 -11 12 -25 16 -30 7 -55 44 -30 44 23 0 17 21 -15 60 -17 19
-30 44 -30 56 0 12 -4 24 -9 26 -5 2 -22 30 -39 62 -26 51 -28 61 -16 73 15
15 5 48 -17 55 -6 2 -11 27 -12 57 -2 35 -8 57 -18 64 -19 14 -47 63 -30 53
16 -10 13 -2 -8 22 -10 12 -23 22 -28 22 -5 0 -22 14 -39 31 -16 17 -46 40
-66 50 -41 21 -54 55 -17 46 15 -4 19 -1 17 11 -2 10 -11 16 -22 14 -13 -3
-17 1 -13 12 4 10 -10 32 -38 61 -28 28 -45 55 -45 70 0 13 -2 29 -3 37 -2 7
-2 10 0 6 3 -5 19 -8 36 -8 22 0 28 3 20 11 -6 6 -17 11 -25 13 -26 3 -50 35
-52 71 -2 24 1 35 10 35 8 0 14 5 14 10 0 6 -4 10 -10 10 -18 0 -10 17 13 28
20 10 19 11 -14 11 -38 1 -69 24 -49 36 6 3 8 10 5 15 -13 21 -12 69 3 75 13
5 13 8 -2 23 -9 10 -16 28 -16 40 0 11 -5 33 -11 49 -8 21 -7 30 4 38 12 9 12
12 0 24 -8 7 -13 21 -10 31 3 11 -5 27 -19 39 -13 12 -24 30 -24 42 0 11 -4
17 -10 14 -5 -3 -10 1 -10 9 0 9 -4 16 -10 16 -18 0 -90 79 -84 93 3 8 -2 20
-11 27 -8 7 -15 20 -15 30 0 10 -16 30 -35 46 -20 15 -33 34 -31 41 3 7 1 15
-4 18 -4 3 -10 -1 -13 -7 -8 -22 -61 13 -65 42 -5 34 -28 58 -63 65 -16 4 -29
13 -29 20 0 7 -7 15 -15 19 -8 3 -15 12 -15 20 0 8 -13 20 -30 27 -16 8 -37
29 -46 49 -9 19 -21 42 -26 50 -4 8 -15 29 -23 47 -8 17 -27 40 -42 52 -16 11
-39 31 -52 43 -19 18 -22 19 -18 6 9 -26 -3 -22 -38 11 -35 34 -102 71 -127
71 -10 0 -20 10 -24 25 -5 22 -34 45 -101 83 -12 7 -30 26 -40 42 -9 17 -26
33 -36 36 -10 3 -23 16 -29 29 -6 14 -30 32 -54 42 -28 12 -44 25 -46 38 -2
11 -16 26 -33 34 -16 8 -32 17 -35 21 -3 4 -30 10 -60 14 -103 11 -135 18
-152 33 -9 8 -21 12 -26 9 -5 -3 -13 4 -17 17 -3 12 -8 17 -11 11 -3 -6 -20 3
-41 23 -24 21 -43 31 -55 27 -11 -3 -25 4 -39 20 -13 15 -31 26 -41 26 -11 0
-30 11 -44 25 -14 14 -30 25 -37 25 -7 0 -23 9 -37 20 -14 11 -31 20 -39 20
-8 0 -36 14 -63 30 -26 17 -53 30 -58 30 -5 0 -24 9 -42 20 -18 11 -41 20 -50
20 -9 0 -29 11 -44 25 -33 31 -87 42 -131 26 -18 -7 -42 -9 -53 -6 -14 4 -20
2 -20 -8 0 -10 -14 -17 -37 -20 -30 -4 -42 0 -56 16 -12 14 -29 20 -53 19 -20
-1 -51 5 -70 13 -22 9 -34 10 -34 3 0 -17 -89 1 -111 23 -10 10 -28 19 -38 19
-11 0 -43 22 -72 49 -29 27 -74 61 -101 75 -47 26 -55 27 -246 30 -108 2 -210
2 -227 -1z m410 -43 c3 -5 1 -10 -4 -10 -6 0 -11 5 -11 10 0 6 2 10 4 10 3 0
8 -4 11 -10z m111 -97 c-7 -7 -26 7 -26 19 0 6 6 6 15 -2 9 -7 13 -15 11 -17z
m-2422 -334 c-7 -11 -41 -12 -48 0 -9 13 2 19 29 13 14 -2 22 -8 19 -13z m-74
-8 c0 -9 -33 -21 -57 -21 -19 0 -15 18 5 23 30 8 52 7 52 -2z m810 -1626 c0
-8 -16 -22 -36 -30 -30 -12 -35 -19 -30 -38 5 -21 0 -25 -49 -41 -35 -12 -67
-17 -91 -13 -40 7 -56 17 -36 24 6 3 12 10 12 17 0 7 13 25 29 40 26 25 35 28
68 23 29 -5 46 -2 68 13 36 24 65 26 65 5z m390 -50 c0 -9 -9 -15 -21 -15 -18
0 -19 2 -9 15 7 8 16 15 21 15 5 0 9 -7 9 -15z m-879 -53 c0 -11 3 -12 6 -4 2
6 14 12 25 12 16 0 19 -5 14 -22 -12 -46 -18 -125 -10 -130 5 -3 23 -8 39 -10
17 -3 24 -3 18 -1 -26 9 -12 30 25 39 21 5 37 15 38 24 1 8 2 36 2 63 1 30 6
47 15 47 8 0 11 -14 9 -45 -4 -44 -4 -45 27 -45 21 0 31 5 31 15 0 19 11 19
34 2 18 -13 17 -15 -12 -35 -17 -13 -45 -22 -66 -22 -25 0 -36 -4 -36 -15 0
-11 11 -15 40 -15 22 0 40 -4 40 -10 0 -5 5 -10 11 -10 5 0 8 4 5 9 -6 10 16
21 41 21 9 0 37 13 63 29 62 38 120 48 161 27 41 -20 40 -20 33 8 -5 23 -4 23
36 16 23 -4 50 -17 61 -29 24 -26 33 -21 55 24 14 31 21 35 55 35 28 0 39 4
39 15 0 17 16 20 25 5 3 -6 -1 -13 -9 -16 -9 -3 -16 -17 -16 -30 0 -25 20 -30
91 -25 19 1 29 -5 37 -25 9 -17 18 -24 28 -20 10 4 18 0 21 -12 5 -20 69 -42
135 -46 48 -3 54 -10 39 -40 -11 -20 -10 -30 8 -66 12 -24 21 -50 21 -57 0
-18 14 -16 41 7 l24 19 -22 1 c-13 0 -23 5 -23 11 0 7 7 8 18 4 44 -19 62 -18
62 4 0 28 22 27 48 -4 13 -14 27 -23 33 -19 15 9 1 -96 -16 -116 -27 -34 -27
-40 4 -40 29 0 31 2 31 40 0 29 4 40 15 40 9 0 18 7 21 15 4 8 15 15 25 15 14
0 19 -7 19 -26 0 -14 5 -46 12 -71 10 -43 10 -48 -10 -64 -12 -9 -22 -20 -22
-23 0 -14 71 -5 88 12 24 22 54 40 125 73 15 7 27 18 27 26 0 9 5 8 20 -4 11
-10 20 -21 20 -25 0 -5 -9 -8 -20 -8 -11 0 -20 -4 -20 -10 0 -5 9 -10 19 -10
11 0 23 5 26 10 3 6 15 10 25 10 15 0 21 -9 26 -40 8 -47 24 -54 24 -10 0 39
31 92 46 76 24 -26 26 -38 8 -52 -11 -9 -14 -17 -9 -20 26 -12 33 -22 39 -66
8 -50 -7 -68 -18 -23 -4 14 -11 25 -16 25 -6 0 -10 7 -10 15 0 8 -5 15 -11 15
-7 0 -8 -7 -4 -17 3 -10 9 -31 12 -48 6 -29 29 -65 43 -65 17 0 120 113 120
132 0 15 4 18 18 13 9 -4 27 -10 40 -12 19 -5 22 -1 22 26 0 24 4 31 20 31 11
0 20 5 20 10 0 6 9 10 20 10 12 0 20 7 20 16 0 11 5 14 16 10 9 -3 27 -6 40
-6 22 0 24 -4 25 -52 l2 -53 6 45 c4 25 10 51 14 58 10 14 36 16 38 2 1 -5 3
-14 4 -20 1 -5 4 -27 5 -47 l3 -38 4 33 c2 17 7 32 11 32 4 -1 23 -14 42 -30
25 -22 45 -30 72 -30 34 0 38 3 38 25 0 15 6 25 14 25 8 0 16 7 20 15 3 8 15
15 26 15 18 0 26 20 21 53 0 4 17 7 38 7 30 0 44 -6 56 -22 14 -21 14 -24 0
-34 -25 -19 -17 -34 19 -34 18 0 54 -3 80 -6 46 -7 46 -7 46 -45 0 -43 11 -50
32 -20 18 26 36 28 85 12 23 -8 50 -10 60 -6 15 6 15 8 3 13 -20 7 -44 32 -31
32 6 0 11 17 11 38 0 27 3 33 10 22 5 -8 10 -11 10 -6 0 6 9 0 20 -12 21 -22
27 -52 10 -52 -5 0 -10 -4 -10 -9 0 -9 69 -19 160 -24 38 -2 45 1 42 16 -2 14
5 17 52 17 30 0 58 -4 61 -10 3 -5 -3 -10 -14 -10 -12 0 -21 -6 -21 -14 0 -18
71 -30 81 -14 9 15 79 -20 79 -39 0 -17 6 -16 35 3 21 14 30 14 62 3 21 -7 31
-14 23 -16 -12 -3 -15 -14 -12 -43 3 -31 1 -40 -11 -40 -8 0 -37 -10 -64 -21
-26 -12 -64 -25 -83 -29 -33 -7 -32 -8 17 -9 76 -2 83 -6 83 -57 0 -32 4 -44
15 -44 8 0 15 -4 15 -9 0 -15 93 -19 134 -5 47 15 49 14 67 -28 7 -18 17 -36
21 -39 5 -3 2 -12 -7 -19 -13 -11 -20 -11 -33 -2 -22 15 -82 42 -94 42 -6 0
-7 -8 -3 -17 5 -10 10 -33 13 -50 2 -18 8 -33 13 -33 5 0 9 -9 9 -20 0 -13 -7
-20 -20 -20 -16 0 -20 -7 -20 -30 0 -28 2 -30 40 -30 37 0 40 -2 41 -27 0 -25
1 -26 9 -8 16 37 11 54 -17 57 -32 4 -44 28 -14 28 16 0 21 6 21 24 0 13 -4
26 -8 28 -5 2 -5 14 -1 28 7 24 7 24 8 2 1 -19 3 -21 20 -10 16 10 23 9 39 -5
10 -9 24 -17 30 -17 9 0 9 -5 0 -20 -10 -16 -10 -24 0 -40 11 -18 10 -20 -16
-20 -27 0 -29 -2 -28 -42 1 -35 -3 -45 -21 -53 -16 -7 -23 -18 -23 -37 0 -16
-4 -28 -10 -28 -5 0 -10 -18 -10 -40 0 -33 3 -40 20 -40 27 0 25 -12 -5 -38
-28 -25 -32 -42 -10 -42 8 0 15 -4 15 -10 0 -5 -18 -10 -40 -10 -29 0 -40 -4
-40 -15 0 -8 -7 -15 -15 -15 -8 0 -15 -7 -15 -15 0 -18 26 -20 33 -2 4 10 7
10 18 0 11 -11 10 -13 -3 -13 -12 0 -18 -11 -20 -37 -5 -67 3 -123 18 -123 17
0 17 -8 -1 -40 -20 -35 -19 -40 9 -40 13 0 26 -6 29 -14 4 -10 17 -13 45 -9
26 3 43 1 53 -9 8 -8 31 -21 52 -27 20 -7 37 -19 37 -27 0 -10 13 -14 45 -14
37 0 47 -4 61 -25 9 -14 14 -28 10 -32 -3 -4 1 -15 11 -25 11 -13 30 -18 65
-18 41 0 48 -3 48 -20 0 -11 -5 -20 -10 -20 -6 0 -5 -9 2 -22 24 -41 43 -58
63 -58 13 0 25 -11 33 -29 11 -25 22 -41 62 -88 5 -7 10 -17 10 -24 0 -14 56
-69 70 -69 5 0 10 -6 10 -14 0 -8 5 -16 10 -18 6 -2 11 -47 13 -103 l2 -100
-28 0 c-30 -1 -54 -25 -35 -36 6 -4 7 -12 4 -18 -11 -16 -46 -13 -46 4 0 8 -6
15 -14 15 -8 0 -16 7 -20 15 -7 19 -46 20 -46 1 0 -8 10 -17 23 -19 l22 -4
-22 -8 c-13 -4 -23 -11 -23 -16 0 -5 -18 -9 -40 -9 -22 0 -40 -4 -40 -8 0 -10
-45 -32 -65 -32 -8 0 -15 9 -15 20 0 17 -7 20 -40 20 -33 0 -40 -3 -40 -19 0
-11 8 -22 18 -24 9 -2 -1 -2 -23 0 -22 3 -49 7 -60 9 -15 4 -17 3 -6 -4 11 -8
4 -13 -30 -22 -24 -6 -58 -16 -75 -21 -17 -5 -46 -11 -65 -13 -19 -2 -72 -10
-119 -16 -73 -11 -135 -13 -200 -8 -8 1 -26 0 -40 -1 -23 -2 -22 -4 10 -16
l35 -13 -44 -1 c-34 -1 -42 2 -37 14 4 12 -1 12 -32 -4 -20 -10 -48 -21 -62
-24 -14 -4 -38 -18 -54 -33 -26 -25 -31 -26 -63 -15 -29 11 -37 10 -52 -3 -14
-13 -30 -15 -75 -10 -55 7 -59 5 -84 -23 -28 -30 -62 -49 -62 -34 0 4 -11 6
-25 3 -14 -2 -32 1 -40 8 -9 8 -15 8 -15 2 0 -6 5 -12 10 -14 7 -2 8 -16 1
-43 -5 -25 -9 -31 -10 -17 -1 19 -4 21 -20 12 -29 -15 -61 -12 -61 5 0 16 -16
20 -24 6 -3 -5 1 -11 9 -15 43 -16 -18 -106 -73 -106 -21 0 -32 -7 -40 -25
-13 -28 -32 -33 -32 -9 0 12 -5 14 -17 9 -10 -4 -30 -10 -46 -13 -15 -2 -30
-8 -33 -13 -8 -14 -36 -10 -56 7 -14 13 -21 14 -32 5 -19 -16 -36 -6 -36 20 0
14 -7 19 -25 19 -22 0 -25 -4 -25 -39 0 -22 4 -41 8 -43 5 -1 2 -34 -7 -73 -9
-39 -20 -65 -24 -58 -9 14 -9 39 -1 136 4 42 3 77 -1 77 -4 0 -29 -8 -55 -17
-42 -15 -53 -15 -91 -3 l-44 14 30 6 30 7 -27 11 c-32 13 -35 29 -10 48 16 12
15 13 -5 14 -15 0 -32 13 -48 39 -25 37 -66 57 -103 52 -8 -1 -23 6 -33 15
-16 14 -26 16 -47 9 -38 -14 -102 -7 -102 10 0 9 -15 17 -41 21 -26 4 -36 10
-28 15 9 5 6 11 -13 20 -23 10 -30 9 -54 -10 -15 -11 -35 -21 -45 -21 -11 0
-19 -4 -19 -10 0 -13 37 -13 42 1 2 6 11 7 22 3 15 -6 10 -10 -25 -21 -68 -20
-79 -18 -79 18 0 19 -4 28 -11 24 -6 -4 -8 -13 -5 -21 8 -21 -11 -26 -41 -11
-15 8 -34 12 -41 9 -23 -8 -60 19 -77 55 -9 19 -22 32 -28 30 -6 -2 -23 -26
-37 -53 -19 -37 -30 -49 -40 -43 -107 54 -206 81 -247 64 -15 -6 -11 -10 22
-24 42 -18 115 -60 115 -67 0 -2 -15 2 -33 9 -18 8 -55 18 -82 22 -28 4 -57 9
-65 11 -89 19 -159 25 -240 19 -52 -4 -115 -6 -140 -5 -49 1 -90 -16 -90 -37
0 -8 -5 -11 -11 -7 -8 4 -8 9 0 17 6 6 11 15 11 19 0 17 -22 7 -50 -22 -22
-23 -38 -30 -67 -30 -21 0 -45 5 -53 10 -11 7 -5 10 25 10 55 0 27 17 -42 26
-29 3 -53 9 -53 13 0 3 -42 7 -92 8 -51 1 -123 5 -160 8 -58 6 -68 10 -68 26
0 21 -3 22 -49 13 -24 -5 -31 -12 -31 -30 0 -16 6 -24 17 -24 14 0 14 -3 5
-12 -16 -16 -32 5 -32 43 0 38 -11 42 -40 14 -15 -14 -44 -29 -66 -32 -21 -3
-42 -11 -46 -17 -4 -6 -41 -12 -82 -14 -42 -2 -76 -8 -76 -12 0 -4 -18 -10
-40 -14 -28 -4 -40 -11 -40 -23 0 -14 -3 -13 -20 5 -17 18 -24 20 -40 9 -26
-16 -25 -27 2 -27 12 0 18 -3 15 -7 -4 -3 -28 -6 -54 -5 -35 1 -43 -2 -28 -8
18 -8 17 -9 -8 -9 -16 -1 -26 -5 -22 -11 4 -6 -25 -10 -79 -10 -51 0 -86 4
-86 10 0 6 -5 10 -11 10 -5 0 -8 -4 -5 -9 3 -5 -9 -11 -27 -14 -17 -2 -33 -1
-35 4 -5 12 -79 12 -84 0 -5 -14 -158 -26 -158 -12 0 6 19 12 43 13 l42 1 -42
4 c-24 2 -43 8 -43 14 0 5 6 9 13 9 9 0 9 2 -1 8 -16 11 -19 165 -3 170 6 2
11 18 11 36 0 17 9 64 20 104 11 39 20 101 20 137 0 37 4 65 10 65 6 0 10 18
10 39 0 22 5 43 11 46 20 13 27 49 13 69 -7 11 -11 30 -8 43 5 17 2 23 -10 23
-14 0 -16 7 -11 38 4 20 12 47 18 60 8 18 8 28 -1 43 -10 16 -10 19 3 19 21 0
30 27 15 45 -10 12 -9 16 2 20 21 8 11 53 -13 60 -27 9 -27 75 0 75 10 0 21 9
24 20 3 11 1 20 -4 20 -5 0 -9 6 -9 14 0 7 -6 19 -14 25 -20 17 -28 51 -10 44
21 -8 17 20 -7 51 -11 14 -16 26 -11 26 10 0 32 44 32 67 0 11 -7 14 -25 11
-27 -6 -33 10 -13 30 6 6 17 28 24 49 12 34 11 39 -8 57 -13 12 -17 21 -10 24
7 2 12 15 12 28 0 14 -4 23 -9 20 -18 -11 -30 41 -18 76 7 18 15 35 18 38 11
9 20 78 10 82 -13 5 3 151 17 156 7 2 12 24 12 52 0 27 7 75 16 107 8 32 15
82 15 111 -1 29 3 52 9 52 5 0 10 -6 10 -12 0 -9 3 -10 8 -2 4 6 22 17 40 25
18 8 38 26 45 42 14 32 47 36 65 7 16 -25 52 -27 52 -2 0 10 -7 27 -15 38 -20
26 -19 34 5 34 26 0 70 45 77 81 3 16 10 29 15 29 5 0 7 9 3 19 -8 26 10 35
62 32 34 -2 43 1 43 13 0 9 8 16 19 16 10 0 24 7 31 15 7 8 16 15 21 15 5 0 9
-7 9 -15 0 -22 27 -18 33 5 3 12 14 20 26 20 14 0 21 6 21 20 0 14 7 20 23 20
13 0 32 8 43 19 11 10 30 22 42 25 12 4 22 14 22 22 0 8 7 14 15 14 8 0 15 -9
15 -20 0 -17 7 -14 40 21 22 23 40 50 40 59 0 17 37 32 85 34 11 1 50 7 88 15
49 11 67 19 67 31 0 9 13 20 33 26 38 12 47 9 48 -14z m1039 -142 c0 -5 -5
-10 -11 -10 -5 0 -7 5 -4 10 3 6 8 10 11 10 2 0 4 -4 4 -10z m-1680 -75 c0 -8
5 -15 11 -15 5 0 7 -5 3 -12 -6 -9 -9 -9 -12 0 -2 7 -10 12 -18 12 -8 0 -11 6
-8 15 4 8 10 15 15 15 5 0 9 -7 9 -15z m1957 9 c-3 -3 -12 -4 -19 -1 -8 3 -5
6 6 6 11 1 17 -2 13 -5z m-40 -46 c-3 -8 -6 -5 -6 6 -1 11 2 17 5 13 3 -3 4
-12 1 -19z m1390 -134 c-3 -3 -12 -4 -19 -1 -8 3 -5 6 6 6 11 1 17 -2 13 -5z
m-3577 -14 c0 -5 -4 -10 -10 -10 -5 0 -10 5 -10 10 0 6 5 10 10 10 6 0 10 -4
10 -10z m2510 -60 c0 -5 -9 -10 -20 -10 -11 0 -20 5 -20 10 0 6 9 10 20 10 11
0 20 -4 20 -10z m505 0 c-3 -5 -10 -10 -16 -10 -5 0 -9 5 -9 10 0 6 7 10 16
10 8 0 12 -4 9 -10z m3200 -70 c3 -5 2 -10 -4 -10 -5 0 -13 5 -16 10 -3 6 -2
10 4 10 5 0 13 -4 16 -10z m69 -95 c3 -8 2 -15 -3 -15 -5 0 -14 7 -21 15 -10
12 -10 15 3 15 8 0 17 -7 21 -15z m-1579 -66 c4 -10 15 -19 26 -19 12 0 19 -7
19 -20 0 -17 -7 -20 -40 -20 -33 0 -40 -3 -40 -20 0 -15 -7 -20 -25 -20 -14 0
-25 4 -25 10 0 5 11 17 25 26 26 17 33 40 15 46 -7 2 -6 13 2 30 14 29 32 23
43 -13z m-175 -9 c0 -5 -4 -10 -10 -10 -5 0 -10 5 -10 10 0 6 5 10 10 10 6 0
10 -4 10 -10z m620 -30 c0 -23 -5 -24 -49 -9 -43 15 -39 29 9 29 33 0 40 -3
40 -20z m-560 -70 l0 -50 -40 0 c-38 0 -40 2 -40 30 0 20 5 30 15 30 8 0 15 4
15 8 0 7 30 27 48 31 1 1 2 -21 2 -49z m100 -154 c0 -3 -4 -8 -10 -11 -5 -3
-10 -1 -10 4 0 6 5 11 10 11 6 0 10 -2 10 -4z m60 -116 c0 -11 -4 -20 -9 -20
-14 0 -23 18 -16 30 10 17 25 11 25 -10z m-5870 -10 c0 -5 -4 -10 -10 -10 -5
0 -10 5 -10 10 0 6 5 10 10 10 6 0 10 -4 10 -10z m5870 -90 c0 -5 -4 -10 -9
-10 -6 0 -13 5 -16 10 -3 6 1 10 9 10 9 0 16 -4 16 -10z m-130 -434 c0 -8 -8
-33 -19 -56 -13 -29 -21 -38 -27 -29 -4 7 -3 14 4 17 7 2 12 21 12 43 0 28 4
39 15 39 8 0 15 -6 15 -14z m685 -986 c0 -10 -12 -16 -37 -18 -21 -2 -38 -7
-38 -13 0 -5 -4 -9 -10 -9 -15 0 -12 47 3 54 26 11 82 1 82 -14z m-802 -127
c-7 -2 -21 -2 -30 0 -10 3 -4 5 12 5 17 0 24 -2 18 -5z m-2525 -85 c19 -19 14
-29 -8 -16 -20 13 -27 28 -12 28 4 0 13 -5 20 -12z m262 -33 c17 -20 11 -24
-22 -18 -16 3 -28 12 -28 19 0 19 34 18 50 -1z m1577 -1 c-3 -3 -12 -4 -19 -1
-8 3 -5 6 6 6 11 1 17 -2 13 -5z m-1518 -40 c-12 -14 -61 -44 -74 -44 -3 0 -5
11 -5 24 0 25 11 29 74 35 16 1 16 -1 5 -15z m311 -4 c0 -5 -7 -10 -15 -10 -8
0 -15 5 -15 10 0 6 7 10 15 10 8 0 15 -4 15 -10z m-2288 -92 c9 -7 18 -27 20
-44 4 -31 3 -32 -40 -38 -25 -3 -68 -6 -96 -6 -115 0 -402 -36 -483 -61 -34
-11 -92 -69 -117 -117 -13 -25 -28 -114 -37 -222 -1 -8 -5 5 -9 30 -10 54 13
181 40 225 36 58 83 93 159 118 63 22 76 30 89 59 33 68 33 68 257 68 146 0
206 -3 217 -12z m165 -45 c-3 -10 -5 -4 -5 12 0 17 2 24 5 18 2 -7 2 -21 0
-30z m4490 -49 c-10 -10 -77 -13 -82 -3 -4 5 15 9 41 9 26 0 45 -3 41 -6z
m-4832 -40 l50 -14 -42 5 c-26 3 -43 1 -43 -5 0 -5 -10 -10 -22 -11 -18 -1
-16 -3 8 -8 57 -14 73 -36 32 -44 -21 -4 -20 -4 3 -6 27 -1 44 -24 33 -42 -3
-6 0 -16 6 -24 11 -13 1 -15 -66 -16 -69 -1 -74 -2 -39 -10 68 -14 125 -11
125 6 0 11 12 15 43 16 l42 1 -39 12 c-51 16 -59 36 -14 36 33 1 33 1 9 14
-14 8 -25 24 -27 40 -2 23 1 26 29 26 l32 1 -25 14 -25 14 36 1 c20 0 66 -13
102 -30 37 -16 72 -30 79 -30 19 1 -23 30 -42 30 -9 0 -25 7 -36 16 -18 14
-17 15 18 9 21 -3 39 -1 43 5 9 14 38 12 71 -5 31 -16 80 -22 56 -6 -26 16 16
21 53 5 42 -17 47 -37 8 -29 -16 3 -21 2 -13 -1 53 -23 45 -54 -14 -55 -40 -1
-40 -1 -11 -10 17 -4 43 -11 58 -14 15 -3 25 -10 22 -15 -7 -12 16 -25 24 -13
3 6 23 13 44 17 34 6 37 5 38 -16 1 -13 1 -26 0 -30 0 -3 17 -9 39 -13 39 -7
52 -19 28 -28 -7 -2 3 -3 22 -3 19 0 44 -3 55 -6 11 -4 27 -3 35 2 13 9 13 11
0 19 -10 7 -17 6 -22 -2 -5 -9 -17 -7 -44 8 l-37 20 29 6 c48 11 134 10 134
-1 0 -5 6 -10 13 -10 17 0 80 -19 95 -28 9 -6 10 -16 3 -34 -7 -20 -19 -27
-53 -31 -24 -4 -63 -9 -88 -13 -25 -3 -47 -10 -50 -14 -3 -4 -40 -11 -83 -15
-61 -6 -75 -10 -67 -20 15 -18 -12 -26 -60 -19 -33 5 -40 3 -54 -19 -12 -17
-15 -36 -10 -64 7 -45 -10 -88 -31 -79 -8 2 -32 -9 -55 -25 -23 -17 -47 -28
-53 -26 -7 2 -25 -7 -40 -19 -16 -13 -35 -24 -42 -24 -24 0 -27 -19 -8 -44 15
-19 23 -21 43 -14 14 5 57 11 97 13 l71 3 7 -36 c4 -24 3 -38 -5 -40 -7 -3 -3
-10 9 -19 16 -10 21 -25 21 -56 0 -56 9 -87 25 -87 12 0 29 -45 30 -80 0 -10
11 -16 32 -17 39 -2 49 10 28 30 -17 17 -20 47 -6 47 5 0 22 -11 38 -24 15
-12 34 -21 41 -19 6 3 12 0 12 -6 0 -6 -15 -11 -32 -12 -31 0 -32 -1 -10 -11
12 -6 22 -15 22 -20 0 -4 17 -8 37 -8 37 0 37 0 15 16 -28 20 -28 36 0 32 13
-2 24 -11 26 -21 2 -11 13 -28 25 -40 l21 -21 -24 -6 c-20 -5 -14 -9 35 -20
72 -16 87 -26 54 -38 -13 -5 -25 -6 -27 -2 -2 5 -19 4 -39 -2 -24 -7 -38 -6
-42 1 -5 7 -16 6 -35 -4 -36 -19 -46 -19 -46 1 0 13 -7 15 -37 9 -21 -4 -39
-11 -41 -16 -2 -5 -9 -9 -16 -9 -7 0 -21 -9 -31 -20 -17 -19 -17 -20 9 -41 14
-11 25 -28 24 -37 -2 -14 8 -18 53 -22 30 -3 72 -14 92 -25 34 -18 37 -23 36
-60 -1 -35 -2 -36 -8 -12 -6 27 -7 27 -29 11 -25 -17 -23 -38 5 -83 11 -17 17
-20 23 -11 4 7 13 9 19 6 16 -10 14 -26 -4 -26 -26 0 -16 -16 18 -28 44 -16
47 -15 47 8 0 13 7 20 19 20 15 0 21 -10 26 -40 5 -30 11 -40 25 -40 25 0 29
-8 23 -47 -3 -19 -11 -33 -19 -33 -21 0 -19 -76 2 -84 21 -8 84 3 84 15 0 5
18 9 40 9 22 0 40 -4 40 -10 0 -5 -12 -10 -26 -10 -14 0 -23 -4 -20 -9 4 -5
20 -7 37 -4 37 6 65 -13 48 -33 -6 -8 -18 -14 -25 -14 -8 0 -14 -4 -14 -10 0
-5 -7 -10 -15 -10 -18 0 -20 -16 -3 -26 27 -17 -56 -24 -270 -23 -129 0 -269
6 -335 14 -240 30 -283 37 -302 45 -45 19 -88 29 -97 24 -6 -4 -13 -2 -17 4
-4 6 -29 17 -56 23 -28 7 -62 21 -77 32 -16 10 -28 15 -28 10 0 -4 -5 0 -11
10 -5 9 -14 17 -19 17 -16 0 -43 32 -65 75 -11 22 -25 47 -31 55 -6 8 -26 56
-44 105 -18 50 -36 99 -41 110 -4 11 -13 45 -20 75 -6 30 -14 59 -17 65 -3 5
-7 16 -8 25 -1 8 -9 39 -18 69 -8 30 -22 93 -31 140 -8 47 -20 106 -25 131
-14 66 -28 191 -36 323 -7 121 2 167 33 167 19 0 16 20 -4 36 -16 12 -15 13
10 14 20 0 27 5 27 19 0 11 -5 23 -10 26 -8 5 -7 11 1 21 9 11 8 14 -2 14 -8
1 -3 7 11 15 l25 15 -22 6 c-13 3 -23 10 -23 15 0 5 10 11 23 13 12 3 31 7 42
9 11 3 0 6 -25 7 -25 1 -38 4 -30 7 8 3 20 10 25 17 15 17 132 55 200 65 90
13 145 12 200 -5z m2847 -20 c-4 -23 -2 -25 17 -19 12 3 21 2 21 -4 0 -5 3
-16 6 -25 5 -12 0 -16 -20 -16 -23 0 -26 -4 -26 -32 0 -17 -3 -29 -6 -26 -8 8
-7 125 1 138 10 17 12 11 7 -16z m-822 -65 c25 -6 39 -14 31 -17 -20 -7 -121
19 -115 30 3 5 13 7 22 4 10 -3 37 -10 62 -17z m3920 -29 c18 -5 21 -9 10 -12
-18 -7 -118 -28 -130 -28 -11 0 -21 30 -14 41 6 11 98 10 134 -1z m-5220 -16
c0 -2 -11 -4 -25 -4 -14 0 -25 4 -25 9 0 4 11 6 25 3 14 -2 25 -6 25 -8z
m2207 -56 c-3 -8 -6 -5 -6 6 -1 11 2 17 5 13 3 -3 4 -12 1 -19z m-349 -47 c3
-10 -2 -11 -19 -6 -39 12 -48 27 -15 23 16 -2 31 -9 34 -17z m3657 -68 c25
-100 -7 -482 -46 -556 -5 -10 -7 -22 -4 -27 7 -12 -28 -162 -55 -235 -4 -11
-14 -40 -21 -65 -7 -25 -16 -49 -20 -55 -4 -5 -10 -24 -13 -42 -4 -17 -14 -37
-22 -44 -8 -6 -14 -20 -14 -30 0 -10 -4 -21 -10 -24 -5 -3 -10 -19 -10 -36 0
-23 -4 -29 -21 -29 -17 0 -19 -3 -10 -14 21 -25 -86 -230 -149 -284 -37 -33
-145 -73 -255 -96 -238 -49 -352 -60 -635 -59 -367 0 -620 33 -900 119 -88 27
-157 62 -95 48 17 -3 44 -12 60 -19 17 -8 66 -20 110 -29 44 -8 103 -20 130
-26 28 -6 64 -12 80 -15 165 -23 292 -36 405 -44 158 -10 484 -4 520 9 14 5
32 8 40 7 44 -6 187 17 340 55 68 17 162 63 198 98 28 27 32 37 32 83 0 30 3
57 6 60 13 12 3 331 -13 412 -10 57 -13 106 -8 168 5 65 3 87 -5 87 -9 0 -9 4
-2 13 7 8 8 56 2 147 -4 74 -7 146 -6 160 3 44 18 100 27 106 15 9 10 76 -5
88 -8 6 -18 23 -22 39 -6 25 -4 27 23 27 21 0 49 -16 94 -51 l64 -52 89 6 c56
4 92 11 98 19 8 12 6 41 -8 118 -10 54 16 23 31 -37z m-5240 -64 c10 -16 0
-21 -29 -13 -14 3 -23 10 -20 15 7 12 41 11 49 -2z m-78 -15 c-3 -3 -12 -4
-19 -1 -8 3 -5 6 6 6 11 1 17 -2 13 -5z m1420 -8 c-3 -8 1 -20 9 -26 8 -7 14
-9 15 -4 2 28 22 -51 26 -105 5 -55 3 -63 -8 -50 -17 17 -33 50 -50 101 -7 21
-21 40 -31 44 -26 8 -22 23 7 30 14 3 25 10 25 15 0 5 3 9 6 9 3 0 4 -6 1 -14z
m-1453 -15 c7 -11 -14 -20 -31 -13 -7 2 -13 8 -13 13 0 12 37 12 44 0z m3406
-96 c7 -9 10 -18 7 -21 -7 -8 -47 14 -47 26 0 15 26 12 40 -5z m27 -101 c-13
-13 -37 6 -37 29 0 37 13 41 29 8 8 -17 12 -34 8 -37z m-3263 20 c4 -9 2 -22
-3 -28 -6 -7 -8 -22 -4 -34 4 -17 1 -22 -15 -22 -11 0 -23 7 -26 16 -8 21 -8
69 1 77 12 13 41 7 47 -9z m-1584 -209 c11 -66 23 -133 26 -150 3 -16 12 -59
20 -95 8 -36 17 -76 19 -90 l5 -25 -14 25 c-35 63 -113 459 -98 498 7 20 11 9
42 -163z m1364 72 c27 -59 29 -64 14 -47 -7 8 -22 14 -34 12 -11 -2 -27 4 -34
13 -7 8 -21 15 -32 15 -10 0 -16 5 -13 10 4 6 11 7 17 4 7 -5 8 -2 4 5 -10 15
22 40 43 34 9 -2 25 -23 35 -46z m1256 -78 c0 -5 -4 -9 -10 -9 -5 0 -10 7 -10
16 0 8 5 12 10 9 6 -3 10 -10 10 -16z m80 1 c0 -5 -4 -10 -10 -10 -5 0 -10 5
-10 10 0 6 5 10 10 10 6 0 10 -4 10 -10z m-1140 -50 c12 -8 11 -10 -7 -10 -13
0 -23 5 -23 10 0 13 11 13 30 0z m-333 -55 c8 -9 13 -18 11 -21 -3 -2 -13 5
-23 16 -21 23 -11 27 12 5z m203 -120 c0 -14 -4 -25 -9 -25 -4 0 -6 11 -3 25
2 14 6 25 8 25 2 0 4 -11 4 -25z m-35 -15 c3 -5 1 -10 -4 -10 -6 0 -11 5 -11
10 0 6 2 10 4 10 3 0 8 -4 11 -10z m1313 -66 c19 -6 22 -13 22 -55 0 -33 -4
-49 -13 -49 -12 0 -37 -68 -43 -116 -5 -50 -71 -162 -146 -250 -45 -52 -48
-55 -137 -99 -52 -26 -303 -95 -347 -95 -11 0 -24 -3 -28 -7 -4 -5 -24 -8 -44
-9 -20 0 -75 -4 -122 -7 -70 -5 -77 -4 -42 4 23 6 42 15 42 20 0 6 -9 7 -22 3
-21 -6 -21 -6 -5 10 9 10 17 20 17 24 0 4 11 20 25 36 17 20 31 27 45 23 15
-4 20 0 20 14 0 12 9 21 28 25 46 10 52 13 48 26 -1 7 -1 10 1 6 3 -5 22 -8
44 -8 35 0 39 3 39 24 0 19 8 27 36 36 24 8 32 15 24 20 -21 13 -1 31 27 24
22 -6 25 -4 20 10 -8 19 48 46 95 46 17 0 31 6 35 16 7 18 50 64 61 64 4 0 27
18 52 41 24 22 52 45 62 50 22 12 24 29 3 29 -28 0 -15 18 22 31 20 6 48 26
62 43 64 77 73 82 119 70z m-1224 -575 c-12 -20 -34 -8 -34 18 0 25 1 26 20 8
11 -10 17 -22 14 -26z m1106 -3 c0 -2 -7 -7 -16 -10 -8 -3 -12 -2 -9 4 6 10
25 14 25 6z m1107 -68 c-2 -13 -4 -3 -4 22 0 25 2 35 4 23 2 -13 2 -33 0 -45z
m-1967 23 c0 -4 -9 -7 -20 -8 -11 -1 -20 4 -20 12 0 8 7 11 20 8 11 -3 20 -8
20 -12z m4565 -101 c3 -5 -1 -10 -9 -10 -8 0 -18 5 -21 10 -3 6 1 10 9 10 8 0
18 -4 21 -10z m-3612 -1265 c1 -5 -6 -11 -15 -13 -11 -2 -18 3 -18 13 0 17 30
18 33 0z m0 -42 c-7 -2 -19 -2 -25 0 -7 3 -2 5 12 5 14 0 19 -2 13 -5z m47
-23 c0 -5 -4 -10 -9 -10 -6 0 -13 5 -16 10 -3 6 1 10 9 10 9 0 16 -4 16 -10z
m130 -64 c0 -8 -4 -18 -10 -21 -5 -3 -10 -4 -10 -1 0 2 -3 11 -6 20 -4 11 -1
16 10 16 9 0 16 -6 16 -14z m-130 -26 c0 -11 -4 -20 -9 -20 -14 0 -23 18 -16
30 10 17 25 11 25 -10z m2000 -35 c0 -22 -4 -25 -40 -25 -22 0 -40 5 -40 10 0
6 8 10 19 10 10 0 24 7 31 15 18 22 30 18 30 -10z m365 -39 c12 -9 15 -15 7
-16 -17 0 -62 30 -62 42 0 10 22 -1 55 -26z m-1465 -87 c0 -34 -3 -39 -24 -39
-24 0 -36 21 -36 66 0 17 5 20 30 16 27 -4 30 -8 30 -43z m1168 -26 c7 -7 10
-13 5 -13 -14 0 -53 30 -53 42 0 10 18 -1 48 -29z m-1196 -98 c-6 -14 -16 -25
-22 -25 -11 0 -13 39 -4 65 6 15 8 15 22 1 13 -12 13 -20 4 -41z m-425 6 c-10
-4 -27 17 -27 33 0 5 8 1 19 -10 10 -10 14 -21 8 -23z m-573 4 c6 -17 4 -18
-18 -9 -20 8 -21 24 -2 24 8 0 16 -7 20 -15z m76 7 c0 -13 -12 -22 -22 -16
-10 6 -1 24 13 24 5 0 9 -4 9 -8z m470 -21 c0 -17 -12 -41 -21 -41 -10 0 -12
33 -2 43 9 10 23 9 23 -2z m-90 -52 c0 -14 -7 -19 -25 -19 -26 0 -26 0 -8 24
20 27 33 25 33 -5z m1725 -29 c3 -5 -3 -10 -14 -10 -12 0 -21 5 -21 10 0 6 6
10 14 10 8 0 18 -4 21 -10z m-1735 -30 c0 -5 -2 -10 -4 -10 -3 0 -8 5 -11 10
-3 6 -1 10 4 10 6 0 11 -4 11 -10z m-655 -80 c-10 -11 -23 -20 -29 -20 -6 1 0
10 13 20 30 26 39 26 16 0z m735 -17 c-1 -24 -2 -26 -11 -10 -5 9 -7 22 -4 27
10 17 15 11 15 -17z m577 -40 c-11 -10 -26 8 -20 23 5 15 7 14 15 -1 6 -9 7
-19 5 -22z m63 16 c0 -11 -4 -18 -10 -14 -5 3 -7 12 -3 20 7 21 13 19 13 -6z
m-860 -38 c0 -12 -20 -25 -27 -18 -7 7 6 27 18 27 5 0 9 -4 9 -9z m-413 -53
c-3 -8 -6 -5 -6 6 -1 11 2 17 5 13 3 -3 4 -12 1 -19z m1753 -58 c0 -5 -10 -10
-22 -10 -19 0 -20 2 -8 10 19 13 30 13 30 0z m-3075 -1230 c3 -5 -1 -10 -9
-10 -9 0 -16 5 -16 10 0 6 4 10 9 10 6 0 13 -4 16 -10z m130 -80 c18 -8 18 -9
-5 -9 -14 0 -32 4 -40 9 -12 8 -12 10 5 9 11 0 29 -4 40 -9z m-46 -81 c24 -11
41 -22 39 -25 -8 -7 -82 22 -86 34 -5 16 -3 15 47 -9z m861 -48 c0 -24 -64
-81 -90 -81 -28 0 -25 -14 6 -30 20 -11 29 -11 44 -2 11 6 27 9 35 5 14 -5 13
-9 -9 -29 -14 -13 -33 -24 -43 -24 -15 0 -15 -2 -3 -9 8 -6 27 -7 42 -4 23 5
28 2 28 -15 0 -23 -19 -33 -49 -25 -15 4 -21 1 -21 -10 0 -9 8 -18 18 -20 13
-4 12 -5 -5 -6 -12 0 -25 -5 -28 -11 -11 -18 -46 -10 -70 16 -17 18 -30 24
-44 19 -25 -7 -27 1 -6 21 16 17 10 44 -12 44 -8 0 -12 -4 -9 -8 3 -5 -10 -8
-28 -8 -36 1 -40 26 -5 26 11 0 22 7 25 15 4 8 12 15 20 15 8 0 14 7 14 15 0
14 14 19 47 18 7 -1 10 3 8 8 -8 13 18 49 35 49 9 0 25 7 36 15 12 8 25 11 29
7 5 -4 5 1 2 11 -5 12 -1 17 13 17 13 0 20 -7 20 -19z m1230 -1 c0 -5 -4 -10
-10 -10 -5 0 -10 5 -10 10 0 6 5 10 10 10 6 0 10 -4 10 -10z m320 -80 c0 -5
-7 -10 -15 -10 -8 0 -15 5 -15 10 0 6 7 10 15 10 8 0 15 -4 15 -10z m-208 -47
c5 -36 3 -52 -6 -42 -9 11 -16 79 -8 79 6 0 12 -17 14 -37z m-1627 -13 c3 -5
-1 -10 -9 -10 -9 0 -23 -17 -32 -37 -9 -21 -18 -32 -21 -26 -3 8 -14 11 -29 7
-15 -4 -24 -2 -24 5 0 6 5 11 11 11 5 0 9 10 7 23 -2 18 3 23 32 28 54 10 58
10 65 -1z m125 -119 c0 -5 -7 -11 -15 -15 -9 -3 -15 0 -15 9 0 8 7 15 15 15 8
0 15 -4 15 -9z m2190 -7 c0 -8 -4 -12 -10 -9 -5 3 -10 10 -10 16 0 5 5 9 10 9
6 0 10 -7 10 -16z m-2162 -44 c-7 -11 -21 -20 -32 -20 -16 0 -16 2 5 20 31 25
42 25 27 0z m-161 -16 c-3 -3 -12 -4 -19 -1 -8 3 -5 6 6 6 11 1 17 -2 13 -5z
m453 -54 c0 -16 -7 -30 -16 -34 -10 -4 -13 -2 -8 6 5 8 2 9 -9 5 -21 -8 -23
23 -5 53 16 25 38 8 38 -30z m-387 33 c-7 -2 -21 -2 -30 0 -10 3 -4 5 12 5 17
0 24 -2 18 -5z m858 -116 c-6 -6 -11 -24 -11 -39 0 -15 -4 -28 -9 -28 -9 0 1
69 14 90 7 11 10 11 13 1 2 -7 -1 -18 -7 -24z m-221 7 c0 -3 -13 -10 -30 -15
-16 -6 -30 -15 -30 -20 0 -5 -9 -9 -19 -9 -31 0 -19 34 15 41 39 9 64 10 64 3z
m-351 -106 c-9 -34 -24 -48 -49 -47 -10 0 -11 2 -2 6 6 2 12 15 12 28 0 21 21
44 42 45 4 0 3 -14 -3 -32z m1638 0 c-3 -8 -6 -5 -6 6 -1 11 2 17 5 13 3 -3 4
-12 1 -19z m-858 -82 c10 -12 8 -13 -8 -9 -12 3 -18 9 -15 14 7 12 10 11 23
-5z m386 -111 c3 -14 7 -36 10 -50 3 -14 1 -25 -5 -25 -9 0 -14 15 -23 73 -5
34 11 36 18 2z m433 -115 c7 -19 7 -30 1 -30 -9 0 -29 41 -29 61 0 19 18 -1
28 -31z m-398 -10 c0 -5 -4 -10 -10 -10 -5 0 -10 5 -10 10 0 6 5 10 10 10 6 0
10 -4 10 -10z m-90 -132 c0 -14 -18 -9 -24 8 -11 28 -6 39 9 20 8 -11 15 -23
15 -28z m-3060 -18 c0 -5 -2 -10 -4 -10 -3 0 -8 5 -11 10 -3 6 -1 10 4 10 6 0
11 -4 11 -10z m2330 -50 c0 -5 -5 -10 -11 -10 -5 0 -7 5 -4 10 3 6 8 10 11 10
2 0 4 -4 4 -10z m77 -95 c3 -9 3 -19 -1 -22 -8 -9 -37 18 -30 28 8 14 24 11
31 -6z m278 -35 c-3 -5 -13 -10 -21 -10 -8 0 -12 5 -9 10 3 6 13 10 21 10 8 0
12 -4 9 -10z m85 -55 c0 -3 -9 -5 -20 -5 -11 0 -20 7 -20 15 0 13 4 14 20 5
11 -6 20 -13 20 -15z m160 -189 c0 -2 -7 -6 -15 -10 -8 -3 -15 -1 -15 4 0 6 7
10 15 10 8 0 15 -2 15 -4z m45 -54 c-6 -7 -35 18 -35 31 0 5 9 2 20 -8 11 -10
18 -20 15 -23z m55 -147 c0 -8 -7 -15 -15 -15 -8 0 -15 7 -15 15 0 8 7 15 15
15 8 0 15 -7 15 -15z m350 -975 c0 -15 -7 -20 -25 -20 -24 0 -34 18 -18 33 15
15 43 7 43 -13z m80 -250 c0 -5 -7 -10 -16 -10 -8 0 -12 5 -9 10 3 6 10 10 16
10 5 0 9 -4 9 -10z m-77 -282 l3 -33 13 33 c8 20 20 32 31 32 18 0 18 -2 2
-40 l-17 -40 -57 0 c-66 0 -71 9 -30 50 36 37 50 36 55 -2z m517 -328 c0 -23
5 -40 11 -40 8 0 9 -22 4 -74 -6 -68 -5 -76 17 -101 13 -14 26 -35 30 -46 6
-16 3 -19 -22 -19 -22 0 -30 -5 -30 -17 0 -10 -3 -28 -6 -40 -5 -19 -2 -23 15
-23 20 0 21 -4 21 -120 0 -81 -4 -120 -11 -120 -8 0 -9 -15 -5 -45 5 -28 3
-52 -5 -67 -21 -39 -39 -194 -26 -229 9 -24 8 -39 -7 -81 -13 -37 -15 -53 -6
-58 13 -8 3 -80 -11 -80 -5 0 -9 -21 -9 -48 0 -38 -4 -50 -22 -62 -35 -23 -58
-31 -58 -19 0 6 -33 9 -88 7 -71 -2 -94 1 -116 15 -19 13 -31 15 -44 8 -13 -8
-23 -3 -44 22 -16 18 -28 35 -28 40 0 4 -4 7 -9 7 -6 0 -22 11 -37 25 -17 16
-30 21 -34 15 -4 -6 -24 14 -46 44 -21 30 -46 58 -55 61 -9 3 -21 17 -28 31
-13 29 -5 94 12 94 5 0 2 8 -7 19 -16 18 -16 20 6 37 19 15 22 27 20 62 -2 25
1 42 7 42 6 0 11 10 11 21 0 12 8 28 18 35 13 11 14 15 4 22 -10 7 -4 17 22
40 31 27 36 37 36 77 l0 45 -54 0 c-45 0 -54 3 -59 20 -3 12 -14 20 -26 20
-14 0 -21 6 -21 20 0 11 -4 20 -8 20 -13 0 -44 72 -34 79 4 3 11 14 15 24 3 9
15 17 26 17 11 0 22 9 26 20 4 13 15 20 31 20 21 0 24 4 24 40 l0 40 54 0 c35
0 58 5 66 15 7 8 19 15 26 15 8 0 14 5 14 10 0 6 18 18 40 27 22 10 40 24 40
31 0 16 22 11 28 -6 2 -7 -3 -12 -12 -12 -9 0 -16 -8 -16 -20 0 -11 -4 -20 -9
-20 -13 0 -20 -49 -8 -57 6 -4 13 -1 15 5 8 26 82 5 82 -23 0 -9 6 -12 16 -8
13 5 12 8 -5 24 -11 11 -25 19 -31 19 -24 0 -2 28 46 57 10 6 18 17 16 23 -4
18 18 80 29 80 5 0 9 -9 9 -20 0 -12 7 -20 16 -20 9 0 18 9 21 20 3 11 12 20
19 20 8 0 14 6 15 13 0 10 2 10 6 0 10 -27 23 -11 23 27 l0 40 50 0 50 0 0
-40z m-920 -370 c0 -5 -2 -10 -4 -10 -3 0 -8 5 -11 10 -3 6 -1 10 4 10 6 0 11
-4 11 -10z m-121 -19 c13 -9 10 -13 -21 -24 -13 -5 -18 -1 -18 13 0 21 16 25
39 11z m-119 -76 c0 -29 -7 -31 -38 -9 -30 21 -28 34 8 34 25 0 30 -4 30 -25z
m1580 -521 c0 -8 -4 -14 -10 -14 -5 0 -10 9 -10 21 0 11 5 17 10 14 6 -3 10
-13 10 -21z m100 -84 c0 -5 -4 -10 -10 -10 -5 0 -10 5 -10 10 0 6 5 10 10 10
6 0 10 -4 10 -10z m-33 -16 c-3 -3 -12 -4 -19 -1 -8 3 -5 6 6 6 11 1 17 -2 13
-5z"/>
<path d="M5250 14425 c7 -8 16 -15 21 -15 5 0 9 7 9 15 0 9 -9 15 -21 15 -18
0 -19 -2 -9 -15z"/>
<path d="M5440 14346 c0 -10 9 -16 21 -16 24 0 21 23 -4 28 -10 2 -17 -3 -17
-12z"/>
<path d="M4860 14295 c0 -8 5 -15 10 -15 6 0 10 7 10 15 0 8 -4 15 -10 15 -5
0 -10 -7 -10 -15z"/>
<path d="M6320 14291 c0 -13 8 -17 48 -26 39 -8 42 5 5 23 -32 14 -53 16 -53
3z"/>
<path d="M7425 13987 c-4 -10 -5 -21 -1 -24 10 -10 18 4 13 24 -4 17 -4 17
-12 0z"/>
<path d="M8002 13933 c1 -50 2 -52 5 -15 3 34 8 42 24 42 23 0 25 15 3 24 -30
12 -34 6 -32 -51z"/>
<path d="M6765 13900 c-18 -20 -17 -20 8 -20 20 0 27 5 27 20 0 11 -4 20 -8
20 -5 0 -17 -9 -27 -20z"/>
<path d="M6824 13864 c3 -9 6 -18 6 -20 0 -3 5 -2 10 1 16 10 12 35 -6 35 -11
0 -14 -5 -10 -16z"/>
<path d="M8480 13870 c0 -5 4 -10 9 -10 6 0 13 5 16 10 3 6 -1 10 -9 10 -9 0
-16 -4 -16 -10z"/>
<path d="M8618 13873 c7 -3 16 -2 19 1 4 3 -2 6 -13 5 -11 0 -14 -3 -6 -6z"/>
<path d="M8110 13730 c0 -5 5 -10 11 -10 5 0 7 5 4 10 -3 6 -8 10 -11 10 -2 0
-4 -4 -4 -10z"/>
<path d="M7840 13710 c0 -5 7 -7 15 -4 8 4 15 8 15 10 0 2 -7 4 -15 4 -8 0
-15 -4 -15 -10z"/>
<path d="M8662 13668 c-18 -18 -15 -28 8 -28 13 0 20 7 20 20 0 23 -10 26 -28
8z"/>
<path d="M8860 13551 c0 -6 5 -13 10 -16 6 -3 10 1 10 9 0 9 -4 16 -10 16 -5
0 -10 -4 -10 -9z"/>
<path d="M8850 13200 c0 -5 7 -10 15 -10 8 0 15 5 15 10 0 6 -7 10 -15 10 -8
0 -15 -4 -15 -10z"/>
<path d="M8780 13091 c0 -5 5 -11 10 -13 7 -2 5 -16 -6 -37 -14 -28 -14 -35
-3 -42 11 -6 15 -1 17 24 2 17 8 35 14 39 8 4 6 11 -5 22 -18 18 -27 20 -27 7z"/>
<path d="M9008 12683 c6 -2 18 -2 25 0 6 3 1 5 -13 5 -14 0 -19 -2 -12 -5z"/>
<path d="M4110 12370 c0 -5 5 -10 10 -10 6 0 10 5 10 10 0 6 -4 10 -10 10 -5
0 -10 -4 -10 -10z"/>
<path d="M9570 12071 c-14 -27 -13 -31 10 -31 15 0 20 7 20 25 0 30 -15 33
-30 6z"/>
<path d="M5420 11765 c14 -16 40 -20 40 -6 0 9 -24 21 -42 21 -6 0 -6 -6 2
-15z"/>
<path d="M8100 11680 c0 -5 5 -10 11 -10 5 0 7 5 4 10 -3 6 -8 10 -11 10 -2 0
-4 -4 -4 -10z"/>
<path d="M7390 11496 c0 -9 5 -16 10 -16 6 0 10 4 10 9 0 6 -4 13 -10 16 -5 3
-10 -1 -10 -9z"/>
<path d="M4845 11370 c11 -5 29 -8 40 -8 16 0 15 2 -5 8 -34 11 -60 11 -35 0z"/>
<path d="M4700 11345 c14 -8 36 -14 49 -15 13 0 32 -10 42 -22 l19 -21 0 21
c0 16 -11 24 -54 36 -67 20 -89 20 -56 1z"/>
<path d="M4724 11305 c11 -8 31 -15 45 -14 24 0 23 2 -9 14 -46 18 -59 18 -36
0z"/>
<path d="M4877 11299 c7 -7 15 -10 18 -7 3 3 -2 9 -12 12 -14 6 -15 5 -6 -5z"/>
<path d="M4183 11258 c2 -7 10 -13 17 -13 7 0 15 6 18 13 2 7 -5 12 -18 12
-13 0 -20 -5 -17 -12z"/>
<path d="M4270 11250 c-22 -7 -21 -8 13 -9 20 -1 37 4 37 9 0 11 -14 11 -50 0z"/>
<path d="M5060 11251 c0 -6 -12 -8 -32 -5 -31 5 -32 5 -14 -10 21 -17 76 -22
76 -7 0 5 -7 14 -15 21 -10 8 -15 9 -15 1z"/>
<path d="M4138 11213 c6 -2 18 -2 25 0 6 3 1 5 -13 5 -14 0 -19 -2 -12 -5z"/>
<path d="M4500 11180 c20 -13 93 -13 85 0 -3 6 -27 10 -53 10 -34 0 -43 -3
-32 -10z"/>
<path d="M5017 11123 c-12 -11 -8 -21 13 -26 24 -6 38 12 19 24 -17 11 -24 11
-32 2z"/>
<path d="M4950 10601 c0 -6 -10 -11 -22 -12 -19 0 -17 -3 11 -15 39 -18 60
-13 57 13 -3 19 -46 32 -46 14z"/>
<path d="M5068 10075 c-6 -30 -3 -43 8 -33 3 4 4 19 2 35 l-3 28 -7 -30z"/>
<path d="M6000 5910 c0 -5 7 -10 15 -10 8 0 15 5 15 10 0 6 -7 10 -15 10 -8 0
-15 -4 -15 -10z"/>
<path d="M5980 5840 c-13 -8 -12 -10 3 -10 9 0 17 5 17 10 0 12 -1 12 -20 0z"/>
<path d="M7980 2455 c-10 -12 -10 -15 4 -15 9 0 16 7 16 15 0 8 -2 15 -4 15
-2 0 -9 -7 -16 -15z"/>
<path d="M9280 15931 c0 -5 7 -12 16 -15 14 -5 15 -4 4 9 -14 17 -20 19 -20 6z"/>
<path d="M10515 14110 c3 -5 8 -10 11 -10 2 0 4 5 4 10 0 6 -5 10 -11 10 -5 0
-7 -4 -4 -10z"/>
<path d="M10702 13849 c2 -7 10 -15 17 -17 8 -3 12 1 9 9 -2 7 -10 15 -17 17
-8 3 -12 -1 -9 -9z"/>
<path d="M10878 13153 c7 -3 16 -2 19 1 4 3 -2 6 -13 5 -11 0 -14 -3 -6 -6z"/>
<path d="M3495 11360 c3 -5 8 -10 11 -10 2 0 4 5 4 10 0 6 -5 10 -11 10 -5 0
-7 -4 -4 -10z"/>
<path d="M3475 11190 c-7 -34 3 -76 15 -64 9 9 14 46 12 77 -3 28 -20 20 -27
-13z"/>
<path d="M3480 11095 c0 -8 5 -15 10 -15 6 0 10 7 10 15 0 8 -4 15 -10 15 -5
0 -10 -7 -10 -15z"/>
<path d="M3435 10880 c-4 -6 2 -27 13 -48 10 -20 22 -50 26 -67 8 -33 23 -55
37 -55 12 0 11 78 -1 93 -6 7 -23 29 -39 50 -17 22 -32 33 -36 27z"/>
<path d="M6440 9525 c-10 -12 -10 -15 3 -15 19 0 31 16 18 24 -5 3 -14 -1 -21
-9z"/>
<path d="M3888 9514 c-5 -4 -8 -24 -8 -44 0 -28 6 -42 23 -53 17 -12 18 -16 6
-16 -15 -1 -15 -5 -4 -38 7 -21 18 -39 24 -41 13 -4 15 54 2 62 -5 3 -7 15 -4
27 3 12 1 24 -4 28 -6 3 -14 23 -19 44 -5 21 -12 35 -16 31z"/>
<path d="M3917 9283 c-11 -10 -8 -43 3 -43 6 0 10 11 10 25 0 26 -2 29 -13 18z"/>
<path d="M7920 9150 c0 -5 5 -10 10 -10 6 0 10 5 10 10 0 6 -4 10 -10 10 -5 0
-10 -4 -10 -10z"/>
<path d="M3982 9025 c0 -16 2 -22 5 -12 2 9 2 23 0 30 -3 6 -5 -1 -5 -18z"/>
<path d="M3991 8856 c-17 -9 -20 -15 -10 -18 22 -7 49 3 49 18 0 17 -8 17 -39
0z"/>
<path d="M7232 8274 c2 -9 13 -23 25 -31 20 -13 23 -12 33 8 14 25 1 39 -38
39 -16 0 -22 -5 -20 -16z"/>
<path d="M7340 8200 c-13 -8 -12 -10 3 -10 9 0 17 5 17 10 0 12 -1 12 -20 0z"/>
<path d="M6625 8091 c-3 -5 -1 -12 5 -16 5 -3 10 1 10 9 0 18 -6 21 -15 7z"/>
<path d="M4275 7890 c3 -5 8 -10 11 -10 2 0 4 5 4 10 0 6 -5 10 -11 10 -5 0
-7 -4 -4 -10z"/>
<path d="M6430 7844 c0 -14 3 -14 15 -4 8 7 15 14 15 16 0 2 -7 4 -15 4 -8 0
-15 -7 -15 -16z"/>
<path d="M5710 7625 c-7 -9 -10 -18 -7 -22 8 -7 37 15 37 28 0 14 -16 11 -30
-6z"/>
<path d="M5984 7547 c-11 -7 -37 -25 -57 -41 -40 -30 -41 -48 -9 -91 8 -11 12
-13 10 -5 -3 8 -2 25 3 38 7 19 12 21 28 13 24 -13 46 9 38 38 -3 11 2 29 10
40 16 24 8 26 -23 8z m1 -47 c-3 -5 -10 -10 -16 -10 -5 0 -9 5 -9 10 0 6 7 10
16 10 8 0 12 -4 9 -10z"/>
<path d="M6060 7535 c-13 -14 -21 -27 -18 -30 9 -9 38 7 38 21 0 8 5 14 10 14
6 0 10 5 10 10 0 17 -15 11 -40 -15z"/>
<path d="M8000 7544 c0 -8 5 -12 10 -9 6 3 10 10 10 16 0 5 -4 9 -10 9 -5 0
-10 -7 -10 -16z"/>
<path d="M4312 7485 c4 -4 26 -11 48 -15 23 -4 38 -4 33 0 -10 10 -90 24 -81
15z"/>
<path d="M5585 7440 c-3 -5 -1 -10 4 -10 6 0 11 5 11 10 0 6 -2 10 -4 10 -3 0
-8 -4 -11 -10z"/>
<path d="M4760 7380 c0 -5 5 -10 11 -10 5 0 7 5 4 10 -3 6 -8 10 -11 10 -2 0
-4 -4 -4 -10z"/>
<path d="M4438 7313 c7 -3 16 -2 19 1 4 3 -2 6 -13 5 -11 0 -14 -3 -6 -6z"/>
<path d="M4390 7290 c0 -5 9 -10 21 -10 11 0 17 5 14 10 -3 6 -13 10 -21 10
-8 0 -14 -4 -14 -10z"/>
<path d="M4470 7280 c0 -15 21 -23 32 -12 6 6 2 11 -11 15 -12 3 -21 1 -21 -3z"/>
<path d="M4790 7270 c-9 -6 -10 -10 -3 -10 6 0 15 5 18 10 8 12 4 12 -15 0z"/>
<path d="M5566 7261 c-11 -12 -13 -21 -7 -25 5 -4 15 3 21 15 15 28 7 34 -14
10z"/>
<path d="M4496 7231 c-20 -8 -20 -8 0 -13 10 -3 27 -9 37 -13 17 -7 18 -6 6
14 -15 23 -15 23 -43 12z"/>
<path d="M4665 7210 c3 -5 15 -10 26 -10 11 0 17 5 14 10 -3 6 -15 10 -26 10
-11 0 -17 -4 -14 -10z"/>
<path d="M4549 7176 c19 -10 21 -15 10 -22 -8 -5 -24 -7 -36 -5 -13 1 -23 0
-23 -3 0 -3 29 -35 64 -70 l63 -64 -30 -6 c-16 -3 -44 -7 -61 -7 -17 -1 6 -6
52 -10 46 -5 96 -16 112 -24 19 -10 40 -13 56 -9 26 7 26 8 9 20 -11 8 -27 14
-37 14 -10 0 -18 5 -18 10 0 6 -10 15 -22 20 l-23 9 22 0 c12 1 24 5 27 10 7
11 -80 42 -97 35 -17 -6 -62 32 -47 41 5 3 10 15 10 25 0 10 6 21 13 23 18 8
-12 27 -43 26 l-25 0 24 -13z"/>
<path d="M4668 7173 c6 -2 18 -2 25 0 6 3 1 5 -13 5 -14 0 -19 -2 -12 -5z"/>
<path d="M4728 7163 c7 -3 16 -2 19 1 4 3 -2 6 -13 5 -11 0 -14 -3 -6 -6z"/>
<path d="M4625 7130 c-3 -5 3 -10 14 -10 12 0 21 5 21 10 0 6 -6 10 -14 10 -8
0 -18 -4 -21 -10z"/>
<path d="M4735 7040 c3 -5 16 -10 28 -10 18 0 19 2 7 10 -20 13 -43 13 -35 0z"/>
<path d="M4676 6951 c-4 -5 -2 -12 3 -15 5 -4 12 -2 15 3 4 5 2 12 -3 15 -5 4
-12 2 -15 -3z"/>
<path d="M4755 6900 c3 -5 8 -10 11 -10 2 0 4 5 4 10 0 6 -5 10 -11 10 -5 0
-7 -4 -4 -10z"/>
<path d="M4678 6873 c-16 -4 -16 -6 -4 -19 8 -8 25 -14 38 -14 24 0 56 16 48
23 -9 8 -65 15 -82 10z"/>
<path d="M4802 6834 c-12 -8 -31 -12 -44 -9 -13 3 -36 0 -51 -8 l-28 -14 29
-6 c18 -4 31 -14 35 -26 3 -12 13 -21 24 -21 10 0 27 -7 37 -15 11 -8 28 -15
38 -15 10 0 18 -4 18 -10 0 -5 -9 -10 -20 -10 -33 0 -23 -14 29 -39 31 -15 55
-21 69 -17 33 11 26 26 -10 26 -23 0 -29 3 -19 9 11 7 9 10 -10 14 -23 4 -23
4 -1 6 12 0 22 6 22 11 0 10 -5 12 -32 14 -7 1 -21 11 -31 24 -14 17 -25 20
-45 15 -25 -6 -26 -5 -10 10 9 9 24 17 34 17 14 0 15 2 3 17 -13 15 -11 16 25
10 33 -5 37 -4 25 7 -23 22 -63 27 -87 10z"/>
<path d="M6828 6833 c6 -2 18 -2 25 0 6 3 1 5 -13 5 -14 0 -19 -2 -12 -5z"/>
<path d="M7100 6806 c0 -8 5 -18 10 -21 6 -3 10 3 10 14 0 12 -4 21 -10 21 -5
0 -10 -6 -10 -14z"/>
<path d="M6880 6608 c0 -4 -9 -8 -20 -8 -11 0 -20 -4 -20 -9 0 -13 26 -32 41
-29 8 2 15 -7 17 -19 3 -20 9 -23 45 -22 23 0 36 3 30 6 -7 2 -13 13 -13 23 0
11 -8 20 -22 22 -25 4 -37 28 -14 28 9 0 16 4 16 9 0 5 -13 9 -30 9 -16 -1
-30 -5 -30 -10z"/>
<path d="M4860 6550 c0 -5 5 -10 10 -10 6 0 10 5 10 10 0 6 -4 10 -10 10 -5 0
-10 -4 -10 -10z"/>
<path d="M7076 6543 c-11 -11 -6 -23 9 -23 8 0 15 4 15 9 0 13 -16 22 -24 14z"/>
<path d="M5665 6510 c3 -5 8 -10 11 -10 2 0 4 5 4 10 0 6 -5 10 -11 10 -5 0
-7 -4 -4 -10z"/>
<path d="M5740 6499 c8 -15 8 -24 0 -34 -7 -8 -9 -18 -6 -24 3 -5 0 -12 -6
-14 -7 -3 -3 -6 10 -6 12 -1 22 4 22 9 0 6 11 10 25 10 26 0 31 13 19 58 -5
17 -14 22 -41 22 -31 0 -33 -2 -23 -21z"/>
<path d="M9281 6454 c0 -11 3 -14 6 -6 3 7 2 16 -1 19 -3 4 -6 -2 -5 -13z"/>
<path d="M5611 6421 c-11 -7 -9 -10 8 -16 22 -7 41 0 41 16 0 11 -30 12 -49 0z"/>
<path d="M5680 6380 c0 -12 8 -12 35 0 18 8 17 9 -7 9 -16 1 -28 -3 -28 -9z"/>
<path d="M5520 6350 c0 -5 5 -10 10 -10 6 0 10 5 10 10 0 6 -4 10 -10 10 -5 0
-10 -4 -10 -10z"/>
<path d="M6000 6351 c0 -5 -13 -23 -29 -40 -17 -18 -23 -31 -16 -31 8 0 17 5
20 10 3 6 17 10 30 10 27 0 83 46 70 58 -4 4 -10 1 -12 -5 -5 -15 -43 -17 -43
-3 0 6 -4 10 -10 10 -5 0 -10 -4 -10 -9z m20 -21 c0 -5 -4 -10 -10 -10 -5 0
-10 5 -10 10 0 6 5 10 10 10 6 0 10 -4 10 -10z"/>
<path d="M5470 6300 c0 -5 4 -10 9 -10 6 0 13 5 16 10 3 6 -1 10 -9 10 -9 0
-16 -4 -16 -10z"/>
<path d="M6957 6295 c-5 -10 0 -15 14 -15 12 0 19 5 17 12 -6 18 -25 20 -31 3z"/>
<path d="M5686 6271 c-3 -4 -26 -14 -51 -21 -52 -14 -75 -36 -29 -27 66 13 89
20 95 30 4 6 15 6 25 2 18 -8 18 -8 2 -12 -10 -3 -18 -9 -18 -14 0 -13 14 -11
28 3 9 9 15 10 20 2 5 -8 17 -1 35 17 22 23 25 29 11 29 -9 0 -23 -8 -30 -17
-13 -17 -13 -17 -14 0 0 13 -8 17 -34 17 -19 0 -37 -4 -40 -9z"/>
<path d="M5901 6267 c-16 -16 -14 -37 3 -37 13 0 46 25 46 35 0 9 -40 11 -49
2z"/>
<path d="M5980 6251 c0 -5 6 -14 14 -20 10 -8 16 -8 25 2 6 8 8 17 4 20 -9 10
-43 8 -43 -2z"/>
<path d="M5804 6194 c-17 -23 -42 -32 -101 -37 -13 -1 -23 -8 -23 -14 0 -8
-14 -14 -32 -14 -35 -2 -40 -1 101 -26 43 -8 43 -8 22 -27 -18 -16 -24 -17
-52 -6 -23 10 -33 10 -38 2 -4 -7 -22 -15 -40 -18 -27 -6 -33 -4 -38 15 -4 15
-13 21 -32 21 -24 -1 -25 -2 -8 -14 10 -8 15 -20 11 -29 -6 -18 15 -34 25 -19
7 12 109 17 191 10 47 -3 71 3 158 41 36 16 52 29 52 42 0 11 -7 19 -15 19 -8
0 -15 9 -15 20 0 11 7 20 15 20 8 0 15 5 15 10 0 18 -51 10 -103 -15 -37 -19
-53 -23 -61 -15 -8 8 -6 15 8 25 19 14 14 35 -8 35 -6 0 -21 -12 -32 -26z m51
-64 c3 -5 1 -10 -4 -10 -6 0 -11 5 -11 10 0 6 2 10 4 10 3 0 8 -4 11 -10z m85
-4 c0 -2 -7 -7 -16 -10 -8 -3 -12 -2 -9 4 6 10 25 14 25 6z"/>
<path d="M5627 6193 c-35 -18 -32 -21 16 -15 23 2 37 10 37 18 0 17 -16 16
-53 -3z"/>
<path d="M6195 6170 c-3 -5 -1 -10 4 -10 6 0 11 5 11 10 0 6 -2 10 -4 10 -3 0
-8 -4 -11 -10z"/>
<path d="M7200 5979 c0 -5 5 -7 10 -4 6 3 10 8 10 11 0 2 -4 4 -10 4 -5 0 -10
-5 -10 -11z"/>
<path d="M5345 5960 c-16 -7 -17 -9 -3 -9 9 -1 20 4 23 9 7 11 7 11 -20 0z"/>
<path d="M7440 5755 c0 -24 -5 -35 -15 -35 -10 0 -15 -10 -15 -34 0 -19 -3
-42 -6 -51 -5 -11 0 -18 13 -21 11 -3 26 -17 33 -30 8 -13 19 -24 26 -24 18 0
28 38 14 54 -6 8 -10 42 -8 79 1 43 -3 71 -11 81 -21 25 -31 19 -31 -19z"/>
<path d="M5510 5761 c0 -5 7 -11 15 -15 8 -3 15 -1 15 3 0 5 -7 11 -15 15 -8
3 -15 1 -15 -3z"/>
<path d="M7841 5734 c0 -11 3 -14 6 -6 3 7 2 16 -1 19 -3 4 -6 -2 -5 -13z"/>
<path d="M7520 5704 c0 -8 5 -12 10 -9 6 3 10 10 10 16 0 5 -4 9 -10 9 -5 0
-10 -7 -10 -16z"/>
<path d="M5600 5690 c0 -8 24 -20 41 -20 6 0 8 4 5 9 -8 12 -46 21 -46 11z"/>
<path d="M5675 5670 c3 -5 8 -10 11 -10 2 0 4 5 4 10 0 6 -5 10 -11 10 -5 0
-7 -4 -4 -10z"/>
<path d="M7280 5660 c0 -16 7 -20 33 -20 l32 1 -24 19 c-30 25 -41 25 -41 0z"/>
<path d="M7014 5571 c3 -30 10 -59 17 -65 9 -8 10 2 6 43 -9 75 -30 95 -23 22z"/>
<path d="M5290 5590 c0 -5 5 -10 11 -10 5 0 7 5 4 10 -3 6 -8 10 -11 10 -2 0
-4 -4 -4 -10z"/>
<path d="M5635 5507 c21 -15 85 -39 85 -32 0 6 -51 31 -80 40 -24 7 -24 6 -5
-8z"/>
<path d="M5370 5466 c0 -8 4 -17 9 -20 5 -4 7 3 4 14 -6 23 -13 26 -13 6z"/>
<path d="M5653 5458 c18 -30 23 -73 7 -63 -22 13 -8 -27 17 -53 15 -15 28 -31
28 -37 2 -26 18 -65 26 -65 6 0 5 9 -1 20 -6 12 -10 29 -8 38 1 10 -7 31 -20
49 -23 33 -29 69 -12 75 6 2 -4 17 -21 33 l-33 30 17 -27z"/>
<path d="M5716 5398 c16 -29 26 -37 40 -31 11 4 8 10 -10 24 -28 22 -40 25
-30 7z"/>
<path d="M5818 5393 c7 -3 16 -2 19 1 4 3 -2 6 -13 5 -11 0 -14 -3 -6 -6z"/>
<path d="M5860 5340 c6 -11 12 -20 14 -20 2 0 2 9 -1 20 -3 11 -9 20 -15 20
-5 0 -4 -9 2 -20z"/>
<path d="M5830 5287 c0 -8 92 -78 96 -74 10 9 -58 77 -77 77 -10 0 -19 -1 -19
-3z"/>
<path d="M5550 5240 c-9 -6 -10 -10 -3 -10 6 0 15 5 18 10 8 12 4 12 -15 0z"/>
<path d="M5940 5238 c0 -3 13 -21 30 -39 16 -19 30 -29 30 -23 0 5 -13 23 -30
39 -16 16 -30 26 -30 23z"/>
<path d="M5751 5194 c0 -11 3 -14 6 -6 3 7 2 16 -1 19 -3 4 -6 -2 -5 -13z"/>
<path d="M12080 5194 c0 -11 9 -14 37 -12 52 4 56 28 4 28 -30 0 -41 -4 -41
-16z"/>
<path d="M12796 5165 c-9 -26 -7 -32 5 -12 6 10 9 21 6 23 -2 3 -7 -2 -11 -11z"/>
<path d="M6010 5166 c0 -2 7 -7 16 -10 8 -3 12 -2 9 4 -6 10 -25 14 -25 6z"/>
<path d="M11591 5144 c0 -11 3 -14 6 -6 3 7 2 16 -1 19 -3 4 -6 -2 -5 -13z"/>
<path d="M5980 5142 c0 -5 7 -16 16 -23 14 -12 16 -11 13 5 -4 20 -29 35 -29
18z"/>
<path d="M6130 5109 c0 -5 5 -7 10 -4 6 3 10 8 10 11 0 2 -4 4 -10 4 -5 0 -10
-5 -10 -11z"/>
<path d="M6037 5079 c7 -7 15 -10 18 -7 3 3 -2 9 -12 12 -14 6 -15 5 -6 -5z"/>
<path d="M6053 5053 c-20 -7 -15 -20 11 -27 12 -3 40 -24 62 -45 39 -41 62
-50 25 -10 -12 13 -21 27 -21 32 0 10 44 -2 48 -14 2 -5 10 -9 18 -9 8 0 14
-4 14 -10 0 -5 5 -10 10 -10 6 0 5 8 -2 20 -14 21 -65 46 -86 42 -8 -2 -21 3
-30 11 -25 20 -35 25 -49 20z"/>
<path d="M12951 5044 c0 -11 3 -14 6 -6 3 7 2 16 -1 19 -3 4 -6 -2 -5 -13z"/>
<path d="M11828 5029 c-24 -13 -23 -29 2 -29 13 0 20 7 20 20 0 23 1 23 -22 9z"/>
<path d="M5790 4993 c0 -14 19 -38 25 -32 8 8 -5 39 -16 39 -5 0 -9 -3 -9 -7z"/>
<path d="M6010 4995 c0 -5 5 -17 10 -25 5 -8 10 -10 10 -5 0 6 -5 17 -10 25
-5 8 -10 11 -10 5z"/>
<path d="M11500 4990 c0 -5 5 -10 10 -10 6 0 10 5 10 10 0 6 -4 10 -10 10 -5
0 -10 -4 -10 -10z"/>
<path d="M12748 4973 c-16 -2 -28 -8 -28 -12 0 -11 63 -21 90 -14 19 5 19 6 3
19 -10 7 -22 13 -28 12 -5 0 -22 -3 -37 -5z"/>
<path d="M12960 4935 c0 -8 7 -15 16 -15 14 0 14 3 4 15 -7 8 -14 15 -16 15
-2 0 -4 -7 -4 -15z"/>
<path d="M13018 4913 c7 -3 16 -2 19 1 4 3 -2 6 -13 5 -11 0 -14 -3 -6 -6z"/>
<path d="M6045 4880 c12 -42 34 -70 55 -70 26 0 26 17 0 25 -11 3 -20 12 -20
19 0 7 -10 21 -21 32 -22 19 -22 19 -14 -6z"/>
<path d="M12545 4850 c-3 -5 -1 -10 4 -10 6 0 11 5 11 10 0 6 -2 10 -4 10 -3
0 -8 -4 -11 -10z"/>
<path d="M12915 4850 c-3 -5 1 -10 10 -10 9 0 13 5 10 10 -3 6 -8 10 -10 10
-2 0 -7 -4 -10 -10z"/>
<path d="M6238 4843 c7 -3 16 -2 19 1 4 3 -2 6 -13 5 -11 0 -14 -3 -6 -6z"/>
<path d="M13018 4843 c7 -3 16 -2 19 1 4 3 -2 6 -13 5 -11 0 -14 -3 -6 -6z"/>
<path d="M12960 4830 c0 -5 5 -10 10 -10 6 0 10 5 10 10 0 6 -4 10 -10 10 -5
0 -10 -4 -10 -10z"/>
<path d="M13065 4804 c6 -37 46 -82 54 -62 2 6 -2 14 -9 18 -9 5 -11 20 -7 44
5 33 4 36 -20 36 -24 0 -25 -2 -18 -36z"/>
<path d="M12350 4800 c0 -5 11 -10 25 -10 14 0 25 5 25 10 0 6 -11 10 -25 10
-14 0 -25 -4 -25 -10z"/>
<path d="M12866 4781 c-4 -7 -5 -15 -2 -18 9 -9 19 4 14 18 -4 11 -6 11 -12 0z"/>
<path d="M11520 4770 c0 -5 5 -10 10 -10 6 0 10 5 10 10 0 6 -4 10 -10 10 -5
0 -10 -4 -10 -10z"/>
<path d="M12960 4770 c0 -5 5 -10 10 -10 6 0 10 5 10 10 0 6 -4 10 -10 10 -5
0 -10 -4 -10 -10z"/>
<path d="M6717 4754 c3 -7 9 -14 14 -14 14 0 10 17 -5 23 -10 4 -13 1 -9 -9z"/>
<path d="M12995 4750 c3 -5 8 -10 11 -10 2 0 4 5 4 10 0 6 -5 10 -11 10 -5 0
-7 -4 -4 -10z"/>
<path d="M13230 4745 c0 -8 4 -15 9 -15 5 0 11 7 15 15 3 9 0 15 -9 15 -8 0
-15 -7 -15 -15z"/>
<path d="M13310 4744 c0 -9 5 -14 12 -12 18 6 21 28 4 28 -9 0 -16 -7 -16 -16z"/>
<path d="M6765 4729 c-8 -13 -15 -8 68 -48 38 -18 70 -31 73 -28 3 2 -10 12
-28 20 -18 9 -44 28 -57 42 -25 27 -46 32 -56 14z"/>
<path d="M11630 4720 c0 -5 11 -10 25 -10 14 0 25 5 25 10 0 6 -11 10 -25 10
-14 0 -25 -4 -25 -10z"/>
<path d="M12598 4713 c-21 -8 -38 -19 -38 -24 0 -5 -18 -9 -40 -9 -29 0 -40
-4 -40 -15 0 -11 11 -15 43 -15 77 0 117 -11 117 -31 0 -13 7 -19 23 -19 13 0
27 -4 33 -10 5 -5 19 -7 32 -4 18 5 22 13 22 50 0 39 -2 44 -23 44 -13 0 -34
11 -47 25 -27 29 -32 29 -82 8z"/>
<path d="M12368 4700 l-23 -19 43 -1 c23 0 42 1 42 3 0 1 -9 10 -20 19 -18 16
-20 16 -42 -2z"/>
<path d="M12110 4695 c0 -8 -7 -15 -15 -15 -9 0 -15 -9 -15 -22 0 -12 -7 -30
-17 -40 -15 -17 -15 -18 0 -18 10 0 17 7 17 15 0 11 11 15 40 15 38 0 40 -2
40 -30 0 -28 2 -30 40 -30 36 0 40 -2 40 -25 0 -22 -4 -25 -36 -25 -19 0 -42
-7 -51 -15 -8 -9 -28 -19 -44 -22 -20 -4 -29 -12 -29 -24 0 -16 -8 -19 -54
-19 -54 0 -54 0 -43 -25 10 -21 19 -25 55 -25 31 0 42 -4 42 -15 0 -10 11 -15
35 -15 33 0 35 2 41 40 4 22 10 40 14 40 3 0 17 -11 30 -25 13 -14 27 -25 32
-25 4 0 8 29 8 65 0 51 3 65 15 65 11 0 15 11 15 40 0 22 5 40 10 40 6 0 10
18 10 40 0 29 4 40 15 40 8 0 15 5 15 10 0 6 -18 10 -40 10 l-40 0 0 -50 c0
-47 -2 -50 -25 -50 -22 0 -25 4 -25 40 0 36 -2 40 -25 40 -14 0 -28 7 -31 15
-4 8 -10 15 -15 15 -5 0 -9 -7 -9 -15z"/>
<path d="M12850 4665 c-19 -19 -38 -35 -42 -35 -5 0 -8 -7 -8 -15 0 -15 31
-20 98 -16 23 2 38 -3 47 -16 13 -17 14 -17 15 0 0 9 -4 17 -10 17 -5 0 -10
16 -10 36 0 35 -20 64 -45 63 -5 0 -26 -16 -45 -34z"/>
<path d="M13010 4640 c0 -34 -3 -40 -20 -40 -20 0 -20 -1 5 -45 14 -25 25 -52
25 -60 0 -23 17 -26 56 -10 22 9 40 12 43 6 3 -5 23 -12 44 -16 21 -4 37 -13
37 -21 0 -8 5 -14 10 -14 6 0 10 9 10 19 0 11 -4 23 -10 26 -5 3 -10 31 -10
61 0 66 18 72 46 14 17 -36 23 -40 57 -40 36 0 37 1 37 38 -1 41 -19 72 -44
72 -9 0 -16 5 -16 10 0 6 -15 4 -36 -5 -44 -18 -44 -18 -44 0 0 12 -7 12 -45
-3 -25 -9 -45 -20 -45 -24 0 -4 -13 -8 -29 -8 -30 0 -41 14 -41 56 0 15 -6 24
-15 24 -11 0 -15 -11 -15 -40z m180 -57 c0 -37 -13 -63 -30 -63 -17 0 -30 26
-30 63 0 12 8 17 30 17 22 0 30 -5 30 -17z"/>
<path d="M13340 4665 c0 -8 5 -15 10 -15 6 0 10 7 10 15 0 8 -4 15 -10 15 -5
0 -10 -7 -10 -15z"/>
<path d="M6640 4649 c0 -5 9 -9 20 -9 11 0 20 2 20 4 0 2 -9 6 -20 9 -11 3
-20 1 -20 -4z"/>
<path d="M6185 4640 c3 -5 16 -10 28 -10 18 0 19 2 7 10 -20 13 -43 13 -35 0z"/>
<path d="M6706 4642 c-3 -6 1 -13 10 -16 23 -9 28 -2 10 13 -8 7 -17 8 -20 3z"/>
<path d="M13440 4626 c0 -8 -3 -23 -7 -33 -4 -12 2 -9 20 10 32 34 33 37 7 37
-11 0 -20 -6 -20 -14z"/>
<path d="M11580 4615 c-24 -14 -24 -14 24 -15 42 0 47 2 36 15 -15 18 -28 18
-60 0z"/>
<path d="M13547 4624 c-13 -13 -7 -24 14 -24 11 0 19 5 17 12 -5 14 -22 21
-31 12z"/>
<path d="M13360 4610 c0 -5 5 -10 11 -10 5 0 7 5 4 10 -3 6 -8 10 -11 10 -2 0
-4 -4 -4 -10z"/>
<path d="M13480 4584 c0 -8 5 -12 10 -9 6 3 10 10 10 16 0 5 -4 9 -10 9 -5 0
-10 -7 -10 -16z"/>
<path d="M12003 4540 c0 -30 2 -43 4 -27 2 15 2 39 0 55 -2 15 -4 2 -4 -28z"/>
<path d="M11360 4560 c0 -19 4 -20 38 -14 38 7 48 11 41 18 -2 2 -21 6 -41 10
-34 6 -38 5 -38 -14z"/>
<path d="M13360 4553 c0 -18 5 -33 10 -33 13 0 13 30 0 50 -7 11 -10 7 -10
-17z"/>
<path d="M6870 4550 c8 -5 22 -10 30 -10 13 0 13 1 0 10 -8 5 -22 10 -30 10
-13 0 -13 -1 0 -10z"/>
<path d="M12677 4539 c-10 -6 -24 -8 -32 -5 -7 2 -25 -1 -39 -7 -21 -10 -26
-19 -26 -49 0 -36 2 -38 30 -38 28 0 30 -2 30 -39 0 -25 5 -41 15 -45 8 -3 15
-13 15 -22 0 -20 24 -13 28 9 2 12 -3 17 -17 17 -18 0 -21 6 -21 40 0 22 -4
40 -10 40 -5 0 -10 7 -10 15 0 11 11 15 40 15 37 0 40 2 40 27 0 31 11 24 34
-22 11 -21 12 -31 4 -36 -15 -9 7 -39 28 -39 8 0 14 -9 14 -20 0 -15 7 -20 25
-20 23 0 25 -4 25 -40 0 -36 -2 -40 -25 -40 -20 0 -25 -5 -25 -25 0 -22 -4
-25 -40 -25 -27 0 -40 -4 -40 -13 0 -14 -40 -37 -65 -37 -9 0 -15 10 -15 25 0
29 0 29 -45 11 -31 -13 -35 -13 -35 0 0 7 -2 14 -5 14 -21 0 -75 -32 -75 -44
0 -13 14 -16 80 -16 44 0 80 -4 80 -10 0 -18 71 -30 99 -17 21 11 125 15 187
8 28 -3 54 -39 54 -75 0 -35 1 -36 40 -36 l40 0 0 -40 c0 -22 -4 -40 -10 -40
-5 0 -10 11 -10 25 0 23 -4 25 -40 25 l-40 0 0 43 -1 42 -20 -24 -20 -24 21
-22 c11 -12 20 -31 20 -43 0 -14 6 -22 17 -22 14 0 14 -3 -5 -20 -22 -20 -87
-28 -94 -11 -1 5 -34 0 -73 -10 -86 -23 -85 -23 -85 -3 0 14 -11 15 -82 9
-101 -8 -118 -12 -118 -31 0 -8 -9 -14 -20 -14 -11 0 -20 -4 -20 -10 0 -5 -16
-10 -36 -10 -27 0 -44 8 -72 35 -20 19 -40 35 -44 35 -5 0 -9 26 -10 58 -1 49
-2 51 -5 15 -4 -38 -7 -43 -29 -43 -23 0 -24 -2 -24 -80 0 -66 3 -80 16 -80 8
0 12 -4 9 -10 -3 -5 -15 -10 -26 -10 -15 0 -19 7 -19 34 l0 34 -72 5 c-40 3
-86 7 -103 11 -25 5 -24 3 11 -14 46 -22 76 -50 53 -50 -8 0 -5 -6 7 -15 10
-8 38 -15 62 -15 23 0 42 -4 42 -10 0 -19 41 -10 63 13 18 19 39 26 119 35
136 17 138 17 138 -13 l0 -25 -117 0 c-114 -1 -119 -1 -136 -25 -20 -28 -18
-30 47 -39 22 -3 43 -11 47 -18 7 -10 11 -10 21 0 17 17 33 15 18 -3 -11 -13
-8 -15 22 -15 19 0 39 -5 45 -11 8 -8 17 -8 32 0 17 10 21 9 21 -4 0 -18 50
-21 68 -3 9 9 12 6 12 -16 0 -24 3 -28 23 -22 12 3 30 6 40 6 9 0 17 7 17 15
0 10 10 15 34 15 56 0 66 -8 66 -51 0 -32 4 -39 19 -39 11 0 22 -6 25 -12 5
-10 7 -10 12 0 3 6 14 12 25 12 18 0 23 -14 22 -73 0 -12 6 -16 19 -11 14 4
18 0 18 -16 0 -12 4 -18 10 -15 6 4 8 10 5 15 -3 5 -1 11 5 15 5 3 10 18 10
33 0 50 16 57 28 13 7 -29 7 -43 -1 -48 -6 -4 -3 -11 7 -19 10 -7 15 -17 11
-23 -4 -7 0 -8 10 -5 9 4 25 -2 38 -13 32 -29 111 -64 157 -70 22 -3 40 -9 40
-13 0 -12 58 -33 69 -25 6 3 11 1 11 -4 0 -6 6 -11 13 -11 7 0 40 -14 74 -30
35 -17 69 -28 80 -24 15 5 15 4 3 -5 -23 -16 -6 -22 38 -13 23 6 43 7 47 4 10
-11 5 -24 -8 -19 -8 3 -20 1 -28 -4 -10 -6 -2 -9 25 -9 31 0 46 -7 79 -40 22
-23 47 -39 56 -38 9 2 25 -4 35 -14 11 -10 28 -18 38 -18 10 0 18 -3 18 -8 0
-4 14 -13 32 -21 18 -8 44 -27 59 -42 36 -37 62 -49 106 -49 28 0 49 -9 83
-36 27 -22 51 -33 63 -30 13 3 17 0 13 -9 -3 -8 1 -18 8 -22 16 -10 46 -66 46
-88 0 -8 5 -15 10 -15 13 0 13 -43 -1 -113 l-11 -55 43 -54 c24 -29 50 -57 57
-61 6 -4 12 -13 12 -19 0 -5 11 -23 25 -40 14 -16 25 -36 25 -44 0 -8 6 -14
13 -14 7 0 19 -10 27 -21 53 -77 49 -118 50 529 0 326 -4 591 -8 588 -9 -6
-42 29 -42 44 0 6 11 16 25 22 25 11 25 12 25 144 l0 133 -32 3 c-30 3 -31 4
-15 20 9 9 21 18 26 20 6 1 13 28 17 59 8 69 1 75 -100 85 l-66 7 0 -27 c0
-24 -3 -26 -40 -26 -27 0 -40 4 -40 14 0 7 -7 19 -15 26 -12 10 -13 16 -4 27
8 9 14 10 19 3 4 -7 15 -4 32 10 28 22 48 26 48 10 0 -12 39 -13 95 -3 l40 8
-45 5 c-42 5 -46 7 -54 43 -5 20 -15 37 -23 37 -7 0 -13 4 -13 9 0 10 145 25
160 16 6 -4 10 3 9 17 0 13 -3 17 -6 11 -3 -8 -24 -13 -55 -13 -42 0 -54 4
-77 29 -23 24 -28 26 -40 14 -13 -14 -11 -46 4 -85 11 -28 -10 -21 -44 14 -29
30 -31 30 -31 10 0 -12 -4 -22 -10 -22 -5 0 -10 -6 -10 -12 0 -7 -5 -20 -10
-28 -9 -13 -11 -13 -20 0 -14 22 -12 40 5 40 11 0 15 11 15 40 l0 40 -55 0
-55 0 0 -40 c0 -38 2 -40 30 -40 25 0 30 -4 30 -22 -1 -40 -23 -58 -73 -58
-25 0 -49 -4 -52 -10 -3 -5 -17 -10 -30 -10 -13 0 -27 5 -30 10 -4 6 -57 10
-126 10 l-119 0 0 40 c0 29 4 40 15 40 8 0 15 -7 15 -17 0 -15 1 -15 18 0 10
10 28 17 40 17 13 0 22 6 22 15 0 11 11 15 40 15 34 0 40 3 40 21 0 11 -8 33
-18 47 -33 48 -34 60 -4 65 18 3 13 4 -15 6 -24 0 -43 -4 -43 -9 0 -6 -21 -30
-47 -55 -54 -52 -73 -47 -73 16 0 32 4 39 19 39 10 0 21 8 24 18 4 9 14 27 23
40 16 21 16 22 -12 22 -17 0 -40 -11 -57 -27 -20 -19 -31 -24 -34 -15 -3 7
-22 12 -44 12 -28 0 -39 4 -39 15 0 20 -34 19 -64 0 -22 -15 -30 -14 -97 10
-40 14 -76 30 -79 36 -13 19 -82 29 -122 16 -33 -10 -38 -16 -38 -43 0 -32 -1
-32 -40 -27 -36 5 -40 4 -40 -17 0 -21 4 -22 40 -17 l40 5 0 -54 0 -54 -49 0
c-44 0 -50 3 -53 23 -2 12 -10 22 -18 22 -8 0 -16 -10 -18 -22 -3 -17 -10 -23
-28 -23 -27 0 -29 18 -14 120 7 51 5 61 -27 128 -19 39 -38 72 -43 72 -4 0
-11 -11 -14 -25 -4 -14 -11 -25 -16 -25 -5 0 -12 11 -16 25 -4 17 -13 25 -28
25 -12 0 -26 4 -31 9 -16 15 -148 23 -168 10z m587 -225 c9 -70 7 -115 -8
-149 l-14 -30 -16 37 c-26 61 -17 188 14 188 13 0 19 -12 24 -46z m253 -30
c-3 -3 -12 -4 -19 -1 -8 3 -5 6 6 6 11 1 17 -2 13 -5z m-187 -43 c0 -37 2 -40
33 -43 28 -3 33 -8 41 -40 10 -38 10 -38 63 -38 38 0 53 -4 53 -14 0 -18 -103
-29 -136 -14 -13 6 -24 15 -24 20 0 4 -18 8 -40 8 l-40 0 0 80 c0 79 0 80 25
80 22 0 25 -4 25 -39z m380 -1 c0 -29 -4 -40 -15 -40 -11 0 -15 11 -15 40 0
29 4 40 15 40 11 0 15 -11 15 -40z m-84 -111 c12 -19 -13 -33 -30 -17 -8 9
-12 18 -9 22 10 10 31 7 39 -5z m-509 -151 c-2 -13 -4 -3 -4 22 0 25 2 35 4
23 2 -13 2 -33 0 -45z m343 22 l0 -40 70 0 c68 0 70 1 70 25 0 14 4 25 8 25 5
0 19 -11 32 -25 34 -36 58 -33 66 10 3 19 10 35 14 35 4 0 11 -16 14 -35 6
-31 10 -35 39 -35 18 0 39 6 46 13 11 10 14 10 18 0 7 -20 167 -17 220 3 39
15 44 15 67 0 34 -22 36 -21 36 14 0 32 17 41 27 15 3 -9 -2 -24 -11 -34 -9
-10 -16 -22 -16 -28 0 -6 -17 -14 -37 -18 -21 -4 -41 -11 -44 -17 -4 -7 -14
-6 -28 2 -22 11 -44 15 -153 26 -32 3 -58 10 -58 15 0 18 -28 9 -33 -11 -5
-18 -11 -19 -66 -14 -43 5 -61 3 -61 -5 0 -6 -17 -11 -40 -11 -22 0 -40 5 -40
10 0 6 -18 10 -40 10 -23 0 -40 -5 -40 -11 0 -14 -96 -7 -112 9 -16 16 -13 56
7 85 26 40 45 35 45 -13z m-86 -86 c9 -3 16 -12 16 -20 0 -10 14 -14 50 -14
l50 0 0 -40 c0 -36 -2 -40 -25 -40 -22 0 -25 4 -25 38 l-1 37 -17 -27 c-9 -16
-19 -28 -22 -28 -3 0 -13 12 -22 28 -14 21 -18 23 -18 9 0 -26 -31 -18 -41 10
-6 16 -3 27 7 38 17 17 25 18 48 9z m-777 -96 c-2 -13 -4 -3 -4 22 0 25 2 35
4 23 2 -13 2 -33 0 -45z m1083 37 c0 -22 4 -25 40 -25 29 0 40 4 40 15 0 11
11 15 40 15 l40 0 0 -47 0 -46 -21 19 c-21 19 -21 18 -44 -9 -18 -20 -33 -27
-60 -27 -24 0 -35 -4 -35 -15 0 -11 -11 -15 -40 -15 -34 0 -40 3 -40 22 0 25
27 58 47 58 9 0 13 13 13 40 0 22 5 40 10 40 6 0 10 -11 10 -25z m340 15 c0
-5 -4 -10 -10 -10 -5 0 -10 5 -10 10 0 6 5 10 10 10 6 0 10 -4 10 -10z m179
-42 c6 -16 5 -24 -4 -26 -8 -2 -16 -21 -20 -43 l-7 -39 -51 0 c-30 0 -60 7
-71 15 -26 20 -46 19 -48 -2 0 -10 -4 2 -7 27 -6 43 -2 77 7 52 2 -7 21 -12
43 -12 32 0 39 3 39 19 0 16 8 21 43 24 23 2 48 4 55 5 7 1 16 -8 21 -20z
m201 12 c0 -5 -18 -10 -40 -10 -22 0 -40 5 -40 10 0 6 18 10 40 10 22 0 40 -4
40 -10z m-1224 -30 c17 0 24 -6 24 -20 0 -17 -7 -20 -40 -20 -36 0 -40 -2 -40
-25 0 -19 -5 -25 -22 -25 -12 0 -31 -9 -43 -20 -13 -12 -29 -18 -38 -15 -18 7
-31 35 -17 35 5 0 13 18 16 40 4 22 10 40 15 40 5 0 9 -18 9 -40 0 -29 4 -40
15 -40 11 0 15 11 15 40 0 36 3 40 25 40 14 0 25 5 25 11 0 6 7 8 16 5 9 -3
27 -6 40 -6z m-499 -37 c-22 -22 -31 -26 -45 -17 -9 6 -18 19 -20 28 -3 13 5
16 45 16 l48 0 -28 -27z m70 5 c-2 -13 -8 -31 -12 -40 -5 -13 -3 -18 9 -18 9
0 16 6 16 14 0 8 9 24 20 37 l19 24 1 -42 0 -43 -40 0 -40 0 0 45 c0 35 4 45
16 45 12 0 15 -6 11 -22z m113 13 c0 -5 3 -23 6 -40 6 -28 4 -31 -20 -31 -23
0 -26 4 -26 33 0 19 3 37 7 40 9 10 33 9 33 -2z m113 -51 c3 -11 1 -20 -4 -20
-5 0 -9 -11 -9 -25 0 -22 -4 -25 -40 -25 -39 0 -40 1 -40 33 0 25 6 37 23 45
36 17 64 14 70 -8z m1287 -10 c0 -5 -4 -10 -10 -10 -5 0 -10 5 -10 10 0 6 5
10 10 10 6 0 10 -4 10 -10z m-1770 -20 c0 -5 -7 -7 -15 -4 -8 4 -15 8 -15 10
0 2 7 4 15 4 8 0 15 -4 15 -10z m1110 -45 c0 -20 -5 -25 -26 -25 -25 0 -25 6
-1 38 15 19 27 14 27 -13z m800 15 c0 -5 -18 -10 -40 -10 -22 0 -40 5 -40 10
0 6 18 10 40 10 22 0 40 -4 40 -10z m-284 -17 c17 -17 17 -18 -9 -21 -15 -2
-27 -8 -27 -13 0 -5 -18 -9 -40 -9 -22 0 -40 5 -40 10 0 6 18 10 40 10 33 0
40 3 40 20 0 25 13 26 36 3z m124 -3 c0 -17 -7 -20 -40 -20 -50 0 -52 15 -2
28 20 5 38 10 40 11 1 1 2 -8 2 -19z m-452 -12 c7 -9 5 -24 -5 -50 -13 -32
-20 -38 -44 -38 -27 0 -29 3 -29 40 0 36 3 40 25 40 14 0 25 5 25 10 0 14 16
13 28 -2z m-108 -18 c0 -5 -4 -10 -9 -10 -6 0 -13 5 -16 10 -3 6 1 10 9 10 9
0 16 -4 16 -10z m0 -80 c0 -5 -18 -10 -40 -10 -22 0 -40 5 -40 10 0 6 18 10
40 10 22 0 40 -4 40 -10z m-588 -45 c4 -17 1 -25 -8 -25 -14 0 -19 31 -7 43 9
10 10 9 15 -18z m1085 -92 c15 -11 14 -13 -10 -13 -23 0 -27 4 -27 29 0 16 3
44 8 62 7 33 7 32 10 -16 2 -32 9 -55 19 -62z m-137 82 c7 -8 19 -15 26 -15 8
0 14 -10 14 -25 0 -14 -3 -25 -7 -25 -13 1 -73 59 -73 70 0 15 26 12 40 -5z
m200 -25 c0 -29 -4 -40 -15 -40 -22 0 -30 27 -17 56 17 36 32 29 32 -16z
m-320 -10 c0 -24 -13 -26 -34 -4 -21 21 -20 24 9 24 18 0 25 -5 25 -20z m392
-87 c-3 -27 -9 -49 -13 -51 -5 -2 -9 -21 -9 -43 0 -21 -4 -39 -10 -39 -5 0
-13 -18 -16 -40 -11 -67 -24 -45 -24 40 0 47 4 80 10 80 6 0 10 17 10 38 0 29
5 40 23 48 34 18 35 17 29 -33z m28 17 c0 -5 -4 -10 -10 -10 -5 0 -10 5 -10
10 0 6 5 10 10 10 6 0 10 -4 10 -10z m-155 -80 c-3 -5 -10 -10 -16 -10 -5 0
-9 5 -9 10 0 6 7 10 16 10 8 0 12 -4 9 -10z m-222 -77 c-7 -2 -21 -2 -30 0
-10 3 -4 5 12 5 17 0 24 -2 18 -5z m307 -167 c0 -7 -7 -19 -15 -26 -9 -8 -15
-8 -15 -2 0 6 -3 17 -6 26 -4 12 0 16 15 16 12 0 21 -6 21 -14z m-33 -168 c-3
-8 -6 -5 -6 6 -1 11 2 17 5 13 3 -3 4 -12 1 -19z"/>
<path d="M11495 4530 c-3 -5 -17 -10 -31 -10 -15 0 -24 -6 -24 -15 0 -11 11
-15 40 -15 36 0 40 3 40 25 0 25 -14 33 -25 15z"/>
<path d="M7103 4506 c9 -7 17 -18 17 -25 0 -6 5 -11 10 -11 6 0 10 3 10 8 -1
14 -28 42 -41 42 -10 -1 -9 -4 4 -14z"/>
<path d="M11560 4495 c13 -14 27 -25 32 -25 4 0 8 11 8 25 0 21 -5 25 -32 25
l-31 0 23 -25z"/>
<path d="M11632 4483 c2 -31 7 -39 26 -41 15 -2 22 2 22 12 0 12 10 16 40 16
29 0 40 -4 40 -15 0 -8 7 -15 15 -15 11 0 15 11 15 40 0 29 -4 40 -15 40 -8 0
-15 -4 -15 -10 0 -5 -18 -10 -40 -10 -22 0 -40 5 -40 10 0 6 -12 10 -26 10
-23 0 -25 -3 -22 -37z"/>
<path d="M12480 4480 c0 -29 4 -40 15 -40 11 0 15 11 15 40 0 29 -4 40 -15 40
-11 0 -15 -11 -15 -40z"/>
<path d="M13520 4510 c0 -6 -15 -24 -32 -40 l-33 -29 89 -1 c77 0 87 2 76 15
-7 8 -18 15 -24 15 -7 0 -23 11 -36 25 -25 26 -40 32 -40 15z"/>
<path d="M13272 4490 c-14 -23 -16 -50 -4 -50 5 0 17 9 27 20 16 18 17 22 4
35 -13 13 -16 12 -27 -5z"/>
<path d="M13342 4497 c-12 -14 -11 -20 5 -39 14 -18 26 -22 56 -20 53 5 51 32
-2 32 -33 0 -40 4 -43 22 -3 19 -4 20 -16 5z"/>
<path d="M10720 4456 c0 -9 7 -16 16 -16 9 0 14 5 12 12 -6 18 -28 21 -28 4z"/>
<path d="M11906 4461 c-4 -7 -5 -15 -2 -18 9 -9 19 4 14 18 -4 11 -6 11 -12 0z"/>
<path d="M6908 4443 c7 -3 16 -2 19 1 4 3 -2 6 -13 5 -11 0 -14 -3 -6 -6z"/>
<path d="M6952 4438 c-16 -16 -15 -38 1 -38 7 0 31 -18 52 -40 21 -22 46 -40
54 -40 8 0 -11 24 -43 54 -33 30 -55 59 -52 65 9 15 3 14 -12 -1z"/>
<path d="M12303 4442 c-43 -3 -43 -3 -43 -43 0 -35 2 -39 26 -39 23 0 25 -3
22 -37 -3 -32 -7 -38 -28 -41 -23 -3 -25 -6 -22 -42 3 -25 0 -40 -7 -40 -6 0
-11 9 -11 21 0 16 -4 19 -22 14 -13 -4 -28 -13 -34 -21 -7 -8 -30 -14 -58 -14
-41 0 -46 -3 -46 -22 0 -12 -7 -30 -17 -40 -15 -17 -14 -18 40 -18 70 0 78
-22 17 -46 -22 -9 -40 -20 -40 -25 0 -5 -18 -9 -40 -9 l-40 0 0 -53 0 -53 39
4 c35 4 40 1 43 -19 3 -23 4 -22 41 10 20 18 37 39 37 47 0 10 12 14 40 14 29
0 40 -4 40 -15 0 -11 -11 -15 -40 -15 -43 0 -53 -17 -25 -40 8 -7 15 -19 15
-26 0 -8 10 -14 25 -14 23 0 25 4 25 40 0 22 5 40 10 40 6 0 10 18 10 40 0 35
3 40 23 40 21 1 22 1 3 15 -11 8 -29 15 -40 15 -22 1 -86 53 -86 70 0 5 18 10
40 10 22 0 40 5 40 10 0 6 33 10 80 10 64 0 80 3 80 15 0 11 11 15 40 15 36 0
40 2 40 25 0 25 0 25 -36 10 -46 -19 -44 -20 -44 13 -1 19 -12 35 -40 57 -21
17 -39 35 -39 40 0 6 18 24 39 40 21 17 39 36 40 43 0 8 5 10 13 6 7 -4 8 -3
4 2 -9 9 -45 11 -114 6z m-223 -457 c0 -21 -5 -25 -32 -25 l-31 0 23 25 c13
14 27 25 32 25 4 0 8 -11 8 -25z"/>
<path d="M10600 4430 c20 -13 40 -13 40 0 0 6 -12 10 -27 10 -22 0 -25 -2 -13
-10z"/>
<path d="M13040 4360 c0 -44 3 -80 8 -80 13 1 45 74 33 78 -6 2 -11 21 -11 43
0 28 -4 39 -15 39 -12 0 -15 -16 -15 -80z"/>
<path d="M6805 4400 c10 -11 20 -20 22 -20 2 0 -2 9 -9 20 -7 11 -17 20 -22
20 -5 0 -1 -9 9 -20z"/>
<path d="M11458 4413 c-33 -8 -18 -23 22 -23 29 0 40 4 40 15 0 15 -25 18 -62
8z"/>
<path d="M10625 4380 c3 -5 8 -10 11 -10 2 0 4 5 4 10 0 6 -5 10 -11 10 -5 0
-7 -4 -4 -10z"/>
<path d="M11680 4375 c0 -8 7 -15 16 -15 14 0 14 3 4 15 -7 8 -14 15 -16 15
-2 0 -4 -7 -4 -15z"/>
<path d="M6831 4363 c0 -9 59 -57 59 -49 0 6 -49 56 -55 56 -3 0 -5 -3 -4 -7z"/>
<path d="M6910 4351 c0 -11 39 -59 40 -49 0 14 -23 58 -32 58 -4 0 -8 -4 -8
-9z"/>
<path d="M10698 4353 c7 -3 16 -2 19 1 4 3 -2 6 -13 5 -11 0 -14 -3 -6 -6z"/>
<path d="M12000 4322 c0 -28 4 -39 15 -39 11 0 15 11 15 39 0 27 -4 38 -15 38
-11 0 -15 -11 -15 -38z"/>
<path d="M13840 4344 c0 -8 10 -14 26 -14 28 0 25 15 -6 23 -13 3 -20 0 -20
-9z"/>
<path d="M13978 4353 c7 -3 16 -2 19 1 4 3 -2 6 -13 5 -11 0 -14 -3 -6 -6z"/>
<path d="M11590 4305 c-12 -22 -20 -25 -62 -24 -26 1 -51 -1 -55 -4 -3 -4 0
-7 7 -7 9 0 8 -6 -5 -20 -10 -11 -28 -20 -40 -20 -11 0 -30 -7 -41 -15 -17
-13 -13 -14 49 -15 l67 0 0 -40 0 -39 -57 -3 c-53 -3 -56 -4 -33 -15 l25 -12
-30 0 -29 -1 24 -17 c17 -12 25 -13 28 -5 2 7 21 12 43 12 28 0 39 4 39 15 0
16 2 17 50 19 17 0 30 4 30 9 0 4 0 12 0 17 0 6 -15 10 -34 10 -32 0 -46 13
-46 41 0 5 36 9 80 9 64 0 80 3 80 15 0 11 -11 15 -40 15 -36 0 -40 3 -40 25
0 21 5 25 32 25 l31 0 -23 25 c-29 31 -33 31 -50 0z"/>
<path d="M11200 4290 c0 -5 7 -10 16 -10 8 0 12 5 9 10 -3 6 -10 10 -16 10 -5
0 -9 -4 -9 -10z"/>
<path d="M11840 4273 c0 -25 1 -25 18 -10 10 10 28 17 40 17 12 0 22 5 22 10
0 6 -18 10 -40 10 -37 0 -40 -2 -40 -27z"/>
<path d="M13983 4283 c13 -3 17 -15 17 -53 0 -46 1 -48 38 -63 l37 -15 3 60
c2 33 2 61 0 63 -2 1 -28 5 -58 7 -30 3 -47 3 -37 1z"/>
<path d="M11760 4269 c0 -5 5 -7 10 -4 6 3 10 8 10 11 0 2 -4 4 -10 4 -5 0
-10 -5 -10 -11z"/>
<path d="M13920 4225 c0 -21 5 -25 32 -25 l31 0 -23 25 c-13 14 -27 25 -32 25
-4 0 -8 -11 -8 -25z"/>
<path d="M11363 4170 c0 -30 2 -43 4 -27 2 15 2 39 0 55 -2 15 -4 2 -4 -28z"/>
<path d="M11128 4193 c6 -2 18 -2 25 0 6 3 1 5 -13 5 -14 0 -19 -2 -12 -5z"/>
<path d="M11250 4185 c7 -8 16 -15 21 -15 5 0 9 7 9 15 0 9 -9 15 -21 15 -18
0 -19 -2 -9 -15z"/>
<path d="M11920 4190 c0 -5 -13 -10 -29 -10 -17 0 -41 -12 -62 -30 -19 -16
-44 -30 -55 -30 -17 0 -20 -5 -16 -25 4 -22 10 -25 43 -25 l39 0 0 -65 c0 -50
-3 -65 -14 -65 -21 0 -31 -21 -15 -31 8 -5 36 -9 63 -9 39 0 47 -3 42 -15 -4
-10 1 -15 14 -15 13 0 18 5 14 15 -4 8 5 30 18 48 20 27 23 39 18 75 -5 30 -2
48 7 57 21 21 16 55 -7 55 -14 0 -20 -7 -20 -21 0 -19 -4 -21 -31 -15 -17 3
-44 6 -60 6 -25 0 -29 4 -29 29 0 29 1 30 38 24 20 -3 39 -10 40 -15 9 -21 29
-4 39 32 10 38 9 40 -13 40 -13 0 -24 -4 -24 -10z m0 -240 c0 -12 -17 -12 -45
0 -17 7 -15 9 13 9 17 1 32 -3 32 -9z"/>
<path d="M12401 4083 c-1 -24 -5 -43 -11 -43 -5 0 -10 -18 -10 -40 0 -22 5
-40 10 -40 6 0 10 18 10 40 0 22 5 40 10 40 12 0 12 37 0 65 -7 15 -9 10 -9
-22z"/>
<path d="M12666 4089 c-9 -47 -8 -49 20 -49 20 0 25 4 20 16 -3 9 -6 27 -6 40
0 35 -26 30 -34 -7z"/>
<path d="M11308 4103 c7 -3 16 -2 19 1 4 3 -2 6 -13 5 -11 0 -14 -3 -6 -6z"/>
<path d="M12470 4074 c1 -51 11 -64 51 -64 28 0 39 4 39 15 0 9 -9 15 -24 15
-15 0 -33 11 -45 26 -18 23 -21 24 -21 8z"/>
<path d="M11600 4050 c0 -16 -5 -19 -22 -17 -13 2 -17 2 -10 0 6 -3 12 -9 12
-14 0 -5 -6 -9 -12 -9 -8 0 -5 -7 6 -15 14 -11 22 -12 27 -4 5 8 16 8 43 -1
20 -6 36 -15 36 -18 0 -4 9 -13 21 -20 12 -8 18 -9 14 -3 -3 6 1 11 9 11 8 0
18 -5 21 -10 4 -7 13 -7 25 0 11 6 25 9 32 8 9 -2 14 11 16 40 3 41 2 42 -27
42 -22 0 -31 -5 -31 -16 0 -14 -8 -16 -56 -11 -61 6 -100 27 -51 27 17 0 27 5
27 15 0 11 -11 15 -40 15 -33 0 -40 -3 -40 -20z"/>
<path d="M12720 4045 c0 -25 14 -33 25 -15 10 17 96 12 117 -7 17 -15 18 -14
18 15 l0 32 -80 0 c-79 0 -80 0 -80 -25z"/>
<path d="M11520 4019 c0 -5 5 -7 10 -4 6 3 10 8 10 11 0 2 -4 4 -10 4 -5 0
-10 -5 -10 -11z"/>
<path d="M11970 3870 c0 -5 7 -10 15 -10 8 0 15 5 15 10 0 6 -7 10 -15 10 -8
0 -15 -4 -15 -10z"/>
<path d="M12740 3631 c35 -20 60 -23 60 -7 0 12 -10 16 -37 16 -26 -1 -33 -3
-23 -9z"/>
<path d="M12705 3590 c3 -5 8 -10 11 -10 2 0 4 5 4 10 0 6 -5 10 -11 10 -5 0
-7 -4 -4 -10z"/>
<path d="M12815 3535 c45 -28 63 -32 45 -10 -7 8 -21 15 -31 15 -10 0 -21 5
-24 10 -3 6 -12 10 -18 10 -7 0 6 -12 28 -25z"/>
<path d="M3830 3160 c0 -5 5 -10 11 -10 5 0 7 5 4 10 -3 6 -8 10 -11 10 -2 0
-4 -4 -4 -10z"/>
<path d="M6720 2260 c0 -11 5 -20 10 -20 6 0 10 9 10 20 0 11 -4 20 -10 20 -5
0 -10 -9 -10 -20z"/>
<path d="M13560 1270 c0 -5 5 -10 10 -10 6 0 10 5 10 10 0 6 -4 10 -10 10 -5
0 -10 -4 -10 -10z"/>
<path d="M13601 1224 c0 -11 3 -14 6 -6 3 7 2 16 -1 19 -3 4 -6 -2 -5 -13z"/>
<path d="M13560 1120 c0 -28 -4 -40 -14 -40 -8 0 -16 8 -18 18 -2 9 -3 -11 -3
-45 1 -34 -1 -60 -4 -58 -4 2 -7 -15 -7 -38 0 -100 -16 -310 -30 -402 -10 -67
-12 -109 -6 -125 9 -24 10 -23 16 15 3 22 13 69 21 105 17 73 29 172 30 240 0
25 3 47 6 50 11 9 18 109 8 115 -15 10 -10 45 6 45 12 0 15 13 15 58 0 31 3
67 6 80 5 16 2 22 -10 22 -12 0 -16 -10 -16 -40z"/>
</g>
</svg>
